<svg id="Camada_1" data-name="Camada 1" xmlns="http://www.w3.org/2000/svg" xmlns:xlink="http://www.w3.org/1999/xlink" viewBox="0 0 370.55 370.71"><defs><style>.cls-1{fill:none;}.cls-2{clip-path:url(#clip-path);}.cls-3{fill:#7e2726;}.cls-4{fill:#7f2727;}.cls-5{fill:#802727;}.cls-6{fill:#812727;}.cls-7{fill:#822727;}.cls-8{fill:#832728;}.cls-9{fill:#842828;}.cls-10{fill:#852828;}.cls-11{fill:#862828;}.cls-12{fill:#872828;}.cls-13{fill:#882828;}.cls-14{fill:#892829;}.cls-15{fill:#8a2829;}.cls-16{fill:#8b2929;}.cls-17{fill:#8c2929;}.cls-18{fill:#8d2929;}.cls-19{fill:#8e2929;}.cls-20{fill:#8f292a;}.cls-21{fill:#90292a;}.cls-22{fill:#91292a;}.cls-23{fill:#922a2a;}.cls-24{fill:#932a2a;}.cls-25{fill:#942a2b;}.cls-26{fill:#952a2b;}.cls-27{fill:#962a2b;}.cls-28{fill:#972a2b;}.cls-29{fill:#982a2b;}.cls-30{fill:#992a2b;}.cls-31{fill:#9a2a2c;}.cls-32{fill:#9a2b2c;}.cls-33{fill:#9b2b2c;}.cls-34{fill:#9c2b2c;}.cls-35{fill:#9d2b2c;}.cls-36{fill:#9e2b2c;}.cls-37{fill:#9f2b2c;}.cls-38{fill:#9f2b2d;}.cls-39{fill:#a02b2d;}.cls-40{fill:#a12b2d;}.cls-41{fill:#a22c2d;}.cls-42{fill:#a32c2d;}.cls-43{fill:#a42c2d;}.cls-44{fill:#a52c2e;}.cls-45{fill:#a62c2e;}.cls-46{fill:#a72c2e;}.cls-47{fill:#a82c2e;}.cls-48{fill:#a92c2e;}.cls-49{fill:#aa2c2e;}.cls-50{fill:#ab2d2e;}.cls-51{fill:#ab2d2f;}.cls-52{fill:#ac2d2f;}.cls-53{fill:#ad2d2f;}.cls-54{fill:#ae2d2f;}.cls-55{fill:#af2d2f;}.cls-56{fill:#b02d2f;}.cls-57{fill:#b12d2f;}.cls-58{fill:#b12d30;}.cls-59{fill:#b22d30;}.cls-60{fill:#b32d30;}.cls-61{fill:#b42d30;}.cls-62{fill:#b42e30;}.cls-63{fill:#b52e30;}.cls-64{fill:#b62e30;}.cls-65{fill:#b72e31;}.cls-66{fill:#b82e31;}.cls-67{fill:#b92e31;}.cls-68{fill:#ba2e31;}.cls-69{fill:#bb2e31;}.cls-70{fill:#bc2e31;}.cls-71{fill:#bd2e31;}.cls-72{fill:#be2e32;}.cls-73{fill:#bf2f32;}.cls-74{fill:#c02f32;}.cls-75{fill:#c12f32;}.cls-76{fill:#c22f32;}.cls-77{fill:#c32f32;}.cls-78{fill:#c42f32;}.cls-79{fill:#c42f33;}.cls-80{fill:#c52f33;}.cls-81{fill:#c62f33;}.cls-82{fill:#c72f33;}.cls-83{fill:#c82f33;}.cls-84{fill:#c92f33;}.cls-85{fill:#ca3033;}.cls-86{fill:#cb3033;}.cls-87{fill:#cc3033;}.cls-88{fill:#cc3034;}.cls-89{fill:#cd3034;}.cls-90{fill:#ce3034;}.cls-91{fill:#cf3034;}.cls-92{fill:#d03034;}.cls-93{fill:#d13034;}.cls-94{fill:#d23034;}.cls-95{fill:#d33034;}.cls-96{fill:#d43034;}.cls-97{fill:#d43035;}.cls-98{fill:#d53135;}.cls-99{fill:#d63135;}.cls-100{fill:#d73135;}.cls-101{fill:#d83135;}.cls-102{fill:#d93135;}.cls-103{fill:#da3135;}.cls-104{fill:#db3135;}.cls-105{fill:#dc3135;}.cls-106{fill:#dd3135;}.cls-107{fill:#de3136;}.cls-108{fill:#df3136;}.cls-109{fill:#e03236;}.cls-110{fill:#e13236;}.cls-111{fill:#e23236;}.cls-112{fill:#e33236;}.cls-113{fill:#e43236;}.cls-114{fill:#e53236;}.cls-115{fill:#e63236;}.cls-116{fill:#e73237;}.cls-117{fill:#e83237;}.cls-118{fill:#ea3237;}.cls-119{fill:#eb3237;}.cls-120{fill:#ec3237;}.cls-121,.cls-122,.cls-123,.cls-124{fill-rule:evenodd;}.cls-121{fill:url(#GradientFill_1);}.cls-122{fill:url(#GradientFill_1-2);}.cls-123,.cls-124{fill:#373435;}.cls-123{stroke:#fff;stroke-miterlimit:10;stroke-width:4px;}</style><clipPath id="clip-path" transform="translate(-183.23 -282.9)"><path class="cls-1" d="M368.4,393.24a74.93,74.93,0,0,1,71.89,53.87H320.73a16.6,16.6,0,0,1-16.59-16.61c0-.29,0-.58,0-.87a74.85,74.85,0,0,1,64.24-36.39Zm64.44,113.14a74.91,74.91,0,0,1-136.31-17H416.25a16.6,16.6,0,0,1,16.6,16.6Z"/></clipPath><linearGradient id="GradientFill_1" x1="450.32" y1="573.74" x2="450.32" y2="374.85" gradientUnits="userSpaceOnUse"><stop offset="0" stop-color="#004071"/><stop offset="1" stop-color="#00aeef"/></linearGradient><linearGradient id="GradientFill_1-2" x1="286.71" y1="350.33" x2="286.71" y2="574.11" xlink:href="#GradientFill_1"/></defs><title>logo SANTA CLARA SVG</title><g class="cls-2"><rect class="cls-3" x="113.3" y="110.35" width="143.76" height="10.41"/><rect class="cls-3" x="113.3" y="120.7" width="143.76" height="0.19"/><rect class="cls-3" x="113.3" y="120.82" width="143.76" height="0.19"/><rect class="cls-3" x="113.3" y="120.95" width="143.76" height="0.19"/><rect class="cls-4" x="113.3" y="121.07" width="143.76" height="0.19"/><rect class="cls-4" x="113.3" y="121.19" width="143.76" height="0.19"/><rect class="cls-4" x="113.3" y="121.32" width="143.76" height="0.19"/><rect class="cls-4" x="113.3" y="121.44" width="143.76" height="0.19"/><rect class="cls-4" x="113.3" y="121.56" width="143.76" height="0.19"/><rect class="cls-4" x="113.3" y="121.69" width="143.76" height="0.19"/><rect class="cls-4" x="113.3" y="121.81" width="143.76" height="0.19"/><rect class="cls-4" x="113.3" y="121.94" width="143.76" height="0.19"/><rect class="cls-4" x="113.3" y="122.06" width="143.76" height="0.19"/><rect class="cls-4" x="113.3" y="122.18" width="143.76" height="0.19"/><rect class="cls-4" x="113.3" y="122.31" width="143.76" height="0.19"/><rect class="cls-4" x="113.3" y="122.43" width="143.76" height="0.19"/><rect class="cls-4" x="113.3" y="122.55" width="143.76" height="0.19"/><rect class="cls-4" x="113.3" y="122.68" width="143.76" height="0.19"/><rect class="cls-5" x="113.3" y="122.8" width="143.76" height="0.19"/><rect class="cls-5" x="113.3" y="122.93" width="143.76" height="0.19"/><rect class="cls-5" x="113.3" y="123.05" width="143.76" height="0.19"/><rect class="cls-5" x="113.3" y="123.17" width="143.76" height="0.19"/><rect class="cls-5" x="113.3" y="123.3" width="143.76" height="0.19"/><rect class="cls-5" x="113.3" y="123.42" width="143.76" height="0.19"/><rect class="cls-5" x="113.3" y="123.54" width="143.76" height="0.19"/><rect class="cls-5" x="113.3" y="123.67" width="143.76" height="0.19"/><rect class="cls-5" x="113.3" y="123.79" width="143.76" height="0.19"/><rect class="cls-5" x="113.3" y="123.92" width="143.76" height="0.19"/><rect class="cls-5" x="113.3" y="124.04" width="143.76" height="0.19"/><rect class="cls-5" x="113.3" y="124.16" width="143.76" height="0.19"/><rect class="cls-5" x="113.3" y="124.29" width="143.76" height="0.19"/><rect class="cls-5" x="113.3" y="124.41" width="143.76" height="0.19"/><rect class="cls-5" x="113.3" y="124.53" width="143.76" height="0.19"/><rect class="cls-5" x="113.3" y="124.66" width="143.76" height="0.19"/><rect class="cls-5" x="113.3" y="124.78" width="143.76" height="0.19"/><rect class="cls-5" x="113.3" y="124.91" width="143.76" height="0.19"/><rect class="cls-5" x="113.3" y="125.03" width="143.76" height="0.19"/><rect class="cls-5" x="113.3" y="125.15" width="143.76" height="0.19"/><rect class="cls-5" x="113.3" y="125.28" width="143.76" height="0.19"/><rect class="cls-6" x="113.3" y="125.4" width="143.76" height="0.19"/><rect class="cls-6" x="113.3" y="125.52" width="143.76" height="0.19"/><rect class="cls-6" x="113.3" y="125.65" width="143.76" height="0.19"/><rect class="cls-6" x="113.3" y="125.77" width="143.76" height="0.19"/><rect class="cls-6" x="113.3" y="125.9" width="143.76" height="0.19"/><rect class="cls-6" x="113.3" y="126.02" width="143.76" height="0.19"/><rect class="cls-6" x="113.3" y="126.14" width="143.76" height="0.19"/><rect class="cls-7" x="113.3" y="126.27" width="143.76" height="0.19"/><rect class="cls-7" x="113.3" y="126.39" width="143.76" height="0.19"/><rect class="cls-7" x="113.3" y="126.51" width="143.76" height="0.19"/><rect class="cls-7" x="113.3" y="126.64" width="143.76" height="0.19"/><rect class="cls-7" x="113.3" y="126.76" width="143.76" height="0.19"/><rect class="cls-7" x="113.3" y="126.89" width="143.76" height="0.19"/><rect class="cls-7" x="113.3" y="127.01" width="143.76" height="0.19"/><rect class="cls-7" x="113.3" y="127.13" width="143.76" height="0.19"/><rect class="cls-7" x="113.3" y="127.26" width="143.76" height="0.19"/><rect class="cls-7" x="113.3" y="127.38" width="143.76" height="0.19"/><rect class="cls-7" x="113.3" y="127.5" width="143.76" height="0.19"/><rect class="cls-7" x="113.3" y="127.63" width="143.76" height="0.19"/><rect class="cls-7" x="113.3" y="127.75" width="143.76" height="0.19"/><rect class="cls-7" x="113.3" y="127.88" width="143.76" height="0.19"/><rect class="cls-8" x="113.3" y="128" width="143.76" height="0.19"/><rect class="cls-8" x="113.3" y="128.12" width="143.76" height="0.19"/><rect class="cls-8" x="113.3" y="128.25" width="143.76" height="0.19"/><rect class="cls-8" x="113.3" y="128.37" width="143.76" height="0.19"/><rect class="cls-8" x="113.3" y="128.49" width="143.76" height="0.19"/><rect class="cls-8" x="113.3" y="128.62" width="143.76" height="0.19"/><rect class="cls-8" x="113.3" y="128.74" width="143.76" height="0.19"/><rect class="cls-9" x="113.3" y="128.87" width="143.76" height="0.19"/><rect class="cls-9" x="113.3" y="128.99" width="143.76" height="0.19"/><rect class="cls-9" x="113.3" y="129.11" width="143.76" height="0.19"/><rect class="cls-9" x="113.3" y="129.24" width="143.76" height="0.19"/><rect class="cls-9" x="113.3" y="129.36" width="143.76" height="0.19"/><rect class="cls-9" x="113.3" y="129.48" width="143.76" height="0.19"/><rect class="cls-9" x="113.3" y="129.61" width="143.76" height="0.19"/><rect class="cls-9" x="113.3" y="129.73" width="143.76" height="0.19"/><rect class="cls-9" x="113.3" y="129.86" width="143.76" height="0.19"/><rect class="cls-9" x="113.3" y="129.98" width="143.76" height="0.19"/><rect class="cls-9" x="113.3" y="130.1" width="143.76" height="0.19"/><rect class="cls-9" x="113.3" y="130.23" width="143.76" height="0.19"/><rect class="cls-9" x="113.3" y="130.35" width="143.76" height="0.19"/><rect class="cls-9" x="113.3" y="130.47" width="143.76" height="0.19"/><rect class="cls-9" x="113.3" y="130.6" width="143.76" height="0.19"/><rect class="cls-10" x="113.3" y="130.72" width="143.76" height="0.19"/><rect class="cls-10" x="113.3" y="130.85" width="143.76" height="0.19"/><rect class="cls-10" x="113.3" y="130.97" width="143.76" height="0.19"/><rect class="cls-10" x="113.3" y="131.09" width="143.76" height="0.19"/><rect class="cls-10" x="113.3" y="131.22" width="143.76" height="0.19"/><rect class="cls-10" x="113.3" y="131.34" width="143.76" height="0.19"/><rect class="cls-10" x="113.3" y="131.46" width="143.76" height="0.19"/><rect class="cls-11" x="113.3" y="131.59" width="143.76" height="0.19"/><rect class="cls-11" x="113.3" y="131.71" width="143.76" height="0.19"/><rect class="cls-11" x="113.3" y="131.84" width="143.76" height="0.19"/><rect class="cls-11" x="113.3" y="131.96" width="143.76" height="0.19"/><rect class="cls-11" x="113.3" y="132.08" width="143.76" height="0.19"/><rect class="cls-11" x="113.3" y="132.21" width="143.76" height="0.19"/><rect class="cls-11" x="113.3" y="132.33" width="143.76" height="0.19"/><rect class="cls-11" x="113.3" y="132.45" width="143.76" height="0.19"/><rect class="cls-11" x="113.3" y="132.58" width="143.76" height="0.19"/><rect class="cls-11" x="113.3" y="132.7" width="143.76" height="0.19"/><rect class="cls-11" x="113.3" y="132.82" width="143.76" height="0.19"/><rect class="cls-11" x="113.3" y="132.95" width="143.76" height="0.19"/><rect class="cls-11" x="113.3" y="133.07" width="143.76" height="0.19"/><rect class="cls-11" x="113.3" y="133.2" width="143.76" height="0.19"/><rect class="cls-12" x="113.3" y="133.32" width="143.76" height="0.19"/><rect class="cls-12" x="113.3" y="133.44" width="143.76" height="0.19"/><rect class="cls-12" x="113.3" y="133.57" width="143.76" height="0.19"/><rect class="cls-12" x="113.3" y="133.69" width="143.76" height="0.19"/><rect class="cls-12" x="113.3" y="133.82" width="143.76" height="0.19"/><rect class="cls-12" x="113.3" y="133.94" width="143.76" height="0.19"/><rect class="cls-12" x="113.3" y="134.06" width="143.76" height="0.19"/><rect class="cls-12" x="113.3" y="134.19" width="143.76" height="0.19"/><rect class="cls-12" x="113.3" y="134.31" width="143.76" height="0.19"/><rect class="cls-12" x="113.3" y="134.43" width="143.76" height="0.19"/><rect class="cls-12" x="113.3" y="134.56" width="143.76" height="0.19"/><rect class="cls-12" x="113.3" y="134.68" width="143.76" height="0.19"/><rect class="cls-12" x="113.3" y="134.8" width="143.76" height="0.19"/><rect class="cls-12" x="113.3" y="134.93" width="143.76" height="0.19"/><rect class="cls-13" x="113.3" y="135.05" width="143.76" height="0.19"/><rect class="cls-13" x="113.3" y="135.18" width="143.76" height="0.19"/><rect class="cls-13" x="113.3" y="135.3" width="143.76" height="0.19"/><rect class="cls-13" x="113.3" y="135.42" width="143.76" height="0.19"/><rect class="cls-13" x="113.3" y="135.55" width="143.76" height="0.19"/><rect class="cls-13" x="113.3" y="135.67" width="143.76" height="0.19"/><rect class="cls-13" x="113.3" y="135.79" width="143.76" height="0.19"/><rect class="cls-14" x="113.3" y="135.92" width="143.76" height="0.19"/><rect class="cls-14" x="113.3" y="136.04" width="143.76" height="0.19"/><rect class="cls-14" x="113.3" y="136.17" width="143.76" height="0.19"/><rect class="cls-14" x="113.3" y="136.29" width="143.76" height="0.19"/><rect class="cls-14" x="113.3" y="136.41" width="143.76" height="0.19"/><rect class="cls-14" x="113.3" y="136.54" width="143.76" height="0.19"/><rect class="cls-14" x="113.3" y="136.66" width="143.76" height="0.19"/><rect class="cls-14" x="113.3" y="136.78" width="143.76" height="0.19"/><rect class="cls-14" x="113.3" y="136.91" width="143.76" height="0.19"/><rect class="cls-14" x="113.3" y="137.03" width="143.76" height="0.19"/><rect class="cls-14" x="113.3" y="137.16" width="143.76" height="0.19"/><rect class="cls-14" x="113.3" y="137.28" width="143.76" height="0.19"/><rect class="cls-14" x="113.3" y="137.4" width="143.76" height="0.19"/><rect class="cls-14" x="113.3" y="137.53" width="143.76" height="0.19"/><rect class="cls-15" x="113.3" y="137.65" width="143.76" height="0.19"/><rect class="cls-15" x="113.3" y="137.77" width="143.76" height="0.19"/><rect class="cls-15" x="113.3" y="137.9" width="143.76" height="0.19"/><rect class="cls-15" x="113.3" y="138.02" width="143.76" height="0.19"/><rect class="cls-15" x="113.3" y="138.15" width="143.76" height="0.19"/><rect class="cls-15" x="113.3" y="138.27" width="143.76" height="0.19"/><rect class="cls-15" x="113.3" y="138.39" width="143.76" height="0.19"/><rect class="cls-16" x="113.3" y="138.52" width="143.76" height="0.19"/><rect class="cls-16" x="113.3" y="138.64" width="143.76" height="0.19"/><rect class="cls-16" x="113.3" y="138.76" width="143.76" height="0.19"/><rect class="cls-16" x="113.3" y="138.89" width="143.76" height="0.19"/><rect class="cls-16" x="113.3" y="139.01" width="143.76" height="0.19"/><rect class="cls-16" x="113.3" y="139.14" width="143.76" height="0.19"/><rect class="cls-16" x="113.3" y="139.26" width="143.76" height="0.19"/><rect class="cls-16" x="113.3" y="139.38" width="143.76" height="0.19"/><rect class="cls-16" x="113.3" y="139.51" width="143.76" height="0.19"/><rect class="cls-16" x="113.3" y="139.63" width="143.76" height="0.19"/><rect class="cls-16" x="113.3" y="139.75" width="143.76" height="0.19"/><rect class="cls-16" x="113.3" y="139.88" width="143.76" height="0.19"/><rect class="cls-16" x="113.3" y="140" width="143.76" height="0.19"/><rect class="cls-16" x="113.3" y="140.13" width="143.76" height="0.19"/><rect class="cls-17" x="113.3" y="140.25" width="143.76" height="0.19"/><rect class="cls-17" x="113.3" y="140.37" width="143.76" height="0.19"/><rect class="cls-17" x="113.3" y="140.5" width="143.76" height="0.19"/><rect class="cls-17" x="113.3" y="140.62" width="143.76" height="0.19"/><rect class="cls-17" x="113.3" y="140.74" width="143.76" height="0.19"/><rect class="cls-17" x="113.3" y="140.87" width="143.76" height="0.19"/><rect class="cls-17" x="113.3" y="140.99" width="143.76" height="0.19"/><rect class="cls-18" x="113.3" y="141.12" width="143.76" height="0.19"/><rect class="cls-18" x="113.3" y="141.24" width="143.76" height="0.19"/><rect class="cls-18" x="113.3" y="141.36" width="143.76" height="0.19"/><rect class="cls-18" x="113.3" y="141.49" width="143.76" height="0.19"/><rect class="cls-18" x="113.3" y="141.61" width="143.76" height="0.19"/><rect class="cls-18" x="113.3" y="141.73" width="143.76" height="0.19"/><rect class="cls-18" x="113.3" y="141.86" width="143.76" height="0.19"/><rect class="cls-18" x="113.3" y="141.98" width="143.76" height="0.19"/><rect class="cls-18" x="113.3" y="142.11" width="143.76" height="0.19"/><rect class="cls-18" x="113.3" y="142.23" width="143.76" height="0.19"/><rect class="cls-18" x="113.3" y="142.35" width="143.76" height="0.19"/><rect class="cls-18" x="113.3" y="142.48" width="143.76" height="0.19"/><rect class="cls-18" x="113.3" y="142.6" width="143.76" height="0.19"/><rect class="cls-18" x="113.3" y="142.72" width="143.76" height="0.19"/><rect class="cls-19" x="113.3" y="142.85" width="143.76" height="0.19"/><rect class="cls-19" x="113.3" y="142.97" width="143.76" height="0.19"/><rect class="cls-19" x="113.3" y="143.1" width="143.76" height="0.19"/><rect class="cls-19" x="113.3" y="143.22" width="143.76" height="0.19"/><rect class="cls-19" x="113.3" y="143.34" width="143.76" height="0.19"/><rect class="cls-19" x="113.3" y="143.47" width="143.76" height="0.19"/><rect class="cls-19" x="113.3" y="143.59" width="143.76" height="0.19"/><rect class="cls-20" x="113.3" y="143.71" width="143.76" height="0.19"/><rect class="cls-20" x="113.3" y="143.84" width="143.76" height="0.19"/><rect class="cls-20" x="113.3" y="143.96" width="143.76" height="0.19"/><rect class="cls-20" x="113.3" y="144.09" width="143.76" height="0.19"/><rect class="cls-20" x="113.3" y="144.21" width="143.76" height="0.19"/><rect class="cls-20" x="113.3" y="144.33" width="143.76" height="0.19"/><rect class="cls-20" x="113.3" y="144.46" width="143.76" height="0.19"/><rect class="cls-20" x="113.3" y="144.58" width="143.76" height="0.19"/><rect class="cls-20" x="113.3" y="144.7" width="143.76" height="0.19"/><rect class="cls-20" x="113.3" y="144.83" width="143.76" height="0.19"/><rect class="cls-20" x="113.3" y="144.95" width="143.76" height="0.19"/><rect class="cls-20" x="113.3" y="145.08" width="143.76" height="0.19"/><rect class="cls-20" x="113.3" y="145.2" width="143.76" height="0.19"/><rect class="cls-20" x="113.3" y="145.32" width="143.76" height="0.19"/><rect class="cls-21" x="113.3" y="145.45" width="143.76" height="0.19"/><rect class="cls-21" x="113.3" y="145.57" width="143.76" height="0.19"/><rect class="cls-21" x="113.3" y="145.69" width="143.76" height="0.19"/><rect class="cls-21" x="113.3" y="145.82" width="143.76" height="0.19"/><rect class="cls-21" x="113.3" y="145.94" width="143.76" height="0.19"/><rect class="cls-21" x="113.3" y="146.07" width="143.76" height="0.19"/><rect class="cls-21" x="113.3" y="146.19" width="143.76" height="0.19"/><rect class="cls-22" x="113.3" y="146.31" width="143.76" height="0.19"/><rect class="cls-22" x="113.3" y="146.44" width="143.76" height="0.19"/><rect class="cls-22" x="113.3" y="146.56" width="143.76" height="0.19"/><rect class="cls-22" x="113.3" y="146.68" width="143.76" height="0.19"/><rect class="cls-22" x="113.3" y="146.81" width="143.76" height="0.19"/><rect class="cls-22" x="113.3" y="146.93" width="143.76" height="0.19"/><rect class="cls-22" x="113.3" y="147.05" width="143.76" height="0.19"/><rect class="cls-22" x="113.3" y="147.18" width="143.76" height="0.19"/><rect class="cls-22" x="113.3" y="147.3" width="143.76" height="0.19"/><rect class="cls-22" x="113.3" y="147.43" width="143.76" height="0.19"/><rect class="cls-22" x="113.3" y="147.55" width="143.76" height="0.19"/><rect class="cls-22" x="113.3" y="147.67" width="143.76" height="0.19"/><rect class="cls-22" x="113.3" y="147.8" width="143.76" height="0.19"/><rect class="cls-22" x="113.3" y="147.92" width="143.76" height="0.19"/><rect class="cls-23" x="113.3" y="148.04" width="143.76" height="0.19"/><rect class="cls-23" x="113.3" y="148.17" width="143.76" height="0.19"/><rect class="cls-23" x="113.3" y="148.29" width="143.76" height="0.19"/><rect class="cls-23" x="113.3" y="148.42" width="143.76" height="0.19"/><rect class="cls-23" x="113.3" y="148.54" width="143.76" height="0.19"/><rect class="cls-23" x="113.3" y="148.66" width="143.76" height="0.19"/><rect class="cls-23" x="113.3" y="148.79" width="143.76" height="0.19"/><rect class="cls-24" x="113.3" y="148.91" width="143.76" height="0.19"/><rect class="cls-24" x="113.3" y="149.03" width="143.76" height="0.19"/><rect class="cls-24" x="113.3" y="149.16" width="143.76" height="0.19"/><rect class="cls-24" x="113.3" y="149.28" width="143.76" height="0.19"/><rect class="cls-24" x="113.3" y="149.41" width="143.76" height="0.19"/><rect class="cls-24" x="113.3" y="149.53" width="143.76" height="0.19"/><rect class="cls-24" x="113.3" y="149.65" width="143.76" height="0.19"/><rect class="cls-24" x="113.3" y="149.78" width="143.76" height="0.19"/><rect class="cls-24" x="113.3" y="149.9" width="143.76" height="0.19"/><rect class="cls-24" x="113.3" y="150.02" width="143.76" height="0.19"/><rect class="cls-24" x="113.3" y="150.15" width="143.76" height="0.19"/><rect class="cls-24" x="113.3" y="150.27" width="143.76" height="0.19"/><rect class="cls-24" x="113.3" y="150.4" width="143.76" height="0.19"/><rect class="cls-24" x="113.3" y="150.52" width="143.76" height="0.19"/><rect class="cls-24" x="113.3" y="150.64" width="143.76" height="0.19"/><rect class="cls-25" x="113.3" y="150.77" width="143.76" height="0.19"/><rect class="cls-25" x="113.3" y="150.89" width="143.76" height="0.19"/><rect class="cls-25" x="113.3" y="151.01" width="143.76" height="0.19"/><rect class="cls-25" x="113.3" y="151.14" width="143.76" height="0.19"/><rect class="cls-25" x="113.3" y="151.26" width="143.76" height="0.19"/><rect class="cls-25" x="113.3" y="151.39" width="143.76" height="0.19"/><rect class="cls-25" x="113.3" y="151.51" width="143.76" height="0.19"/><rect class="cls-26" x="113.3" y="151.63" width="143.76" height="0.19"/><rect class="cls-26" x="113.3" y="151.76" width="143.76" height="0.19"/><rect class="cls-26" x="113.3" y="151.88" width="143.76" height="0.19"/><rect class="cls-26" x="113.3" y="152" width="143.76" height="0.19"/><rect class="cls-26" x="113.3" y="152.13" width="143.76" height="0.19"/><rect class="cls-26" x="113.3" y="152.25" width="143.76" height="0.19"/><rect class="cls-26" x="113.3" y="152.38" width="143.76" height="0.19"/><rect class="cls-26" x="113.3" y="152.5" width="143.76" height="0.19"/><rect class="cls-26" x="113.3" y="152.62" width="143.76" height="0.19"/><rect class="cls-26" x="113.3" y="152.75" width="143.76" height="0.19"/><rect class="cls-26" x="113.3" y="152.87" width="143.76" height="0.19"/><rect class="cls-26" x="113.3" y="152.99" width="143.76" height="0.19"/><rect class="cls-26" x="113.3" y="153.12" width="143.76" height="0.19"/><rect class="cls-26" x="113.3" y="153.24" width="143.76" height="0.19"/><rect class="cls-27" x="113.3" y="153.37" width="143.76" height="0.19"/><rect class="cls-27" x="113.3" y="153.49" width="143.76" height="0.19"/><rect class="cls-27" x="113.3" y="153.61" width="143.76" height="0.19"/><rect class="cls-27" x="113.3" y="153.74" width="143.76" height="0.19"/><rect class="cls-27" x="113.3" y="153.86" width="143.76" height="0.19"/><rect class="cls-27" x="113.3" y="153.98" width="143.76" height="0.19"/><rect class="cls-27" x="113.3" y="154.11" width="143.76" height="0.19"/><rect class="cls-28" x="113.3" y="154.23" width="143.76" height="0.19"/><rect class="cls-28" x="113.3" y="154.36" width="143.76" height="0.19"/><rect class="cls-28" x="113.3" y="154.48" width="143.76" height="0.19"/><rect class="cls-28" x="113.3" y="154.6" width="143.76" height="0.19"/><rect class="cls-28" x="113.3" y="154.73" width="143.76" height="0.19"/><rect class="cls-28" x="113.3" y="154.85" width="143.76" height="0.19"/><rect class="cls-28" x="113.3" y="154.97" width="143.76" height="0.19"/><rect class="cls-29" x="113.3" y="155.1" width="143.76" height="0.19"/><rect class="cls-29" x="113.3" y="155.22" width="143.76" height="0.19"/><rect class="cls-29" x="113.3" y="155.35" width="143.76" height="0.19"/><rect class="cls-29" x="113.3" y="155.47" width="143.76" height="0.19"/><rect class="cls-29" x="113.3" y="155.59" width="143.76" height="0.19"/><rect class="cls-29" x="113.3" y="155.72" width="143.76" height="0.19"/><rect class="cls-29" x="113.3" y="155.84" width="143.76" height="0.19"/><rect class="cls-29" x="113.3" y="155.96" width="143.76" height="0.19"/><rect class="cls-29" x="113.3" y="156.09" width="143.76" height="0.19"/><rect class="cls-29" x="113.3" y="156.21" width="143.76" height="0.19"/><rect class="cls-29" x="113.3" y="156.34" width="143.76" height="0.19"/><rect class="cls-29" x="113.3" y="156.46" width="143.76" height="0.19"/><rect class="cls-29" x="113.3" y="156.58" width="143.76" height="0.19"/><rect class="cls-29" x="113.3" y="156.71" width="143.76" height="0.19"/><rect class="cls-30" x="113.3" y="156.83" width="143.76" height="0.19"/><rect class="cls-30" x="113.3" y="156.95" width="143.76" height="0.19"/><rect class="cls-30" x="113.3" y="157.08" width="143.76" height="0.19"/><rect class="cls-30" x="113.3" y="157.2" width="143.76" height="0.19"/><rect class="cls-30" x="113.3" y="157.33" width="143.76" height="0.19"/><rect class="cls-30" x="113.3" y="157.45" width="143.76" height="0.19"/><rect class="cls-30" x="113.3" y="157.57" width="143.76" height="0.19"/><rect class="cls-31" x="113.3" y="157.7" width="143.76" height="0.19"/><rect class="cls-31" x="113.3" y="157.82" width="143.76" height="0.19"/><rect class="cls-31" x="113.3" y="157.94" width="143.76" height="0.19"/><rect class="cls-31" x="113.3" y="158.07" width="143.76" height="0.19"/><rect class="cls-31" x="113.3" y="158.19" width="143.76" height="0.19"/><rect class="cls-31" x="113.3" y="158.31" width="143.76" height="0.19"/><rect class="cls-31" x="113.3" y="158.44" width="143.76" height="0.19"/><rect class="cls-32" x="113.3" y="158.56" width="143.76" height="0.19"/><rect class="cls-32" x="113.3" y="158.69" width="143.76" height="0.19"/><rect class="cls-32" x="113.3" y="158.81" width="143.76" height="0.19"/><rect class="cls-32" x="113.3" y="158.93" width="143.76" height="0.19"/><rect class="cls-32" x="113.3" y="159.06" width="143.76" height="0.19"/><rect class="cls-32" x="113.3" y="159.18" width="143.76" height="0.19"/><rect class="cls-32" x="113.3" y="159.3" width="143.76" height="0.19"/><rect class="cls-33" x="113.3" y="159.43" width="143.76" height="0.19"/><rect class="cls-33" x="113.3" y="159.55" width="143.76" height="0.19"/><rect class="cls-33" x="113.3" y="159.68" width="143.76" height="0.19"/><rect class="cls-33" x="113.3" y="159.8" width="143.76" height="0.19"/><rect class="cls-33" x="113.3" y="159.92" width="143.76" height="0.19"/><rect class="cls-33" x="113.3" y="160.05" width="143.76" height="0.19"/><rect class="cls-33" x="113.3" y="160.17" width="143.76" height="0.19"/><rect class="cls-34" x="113.3" y="160.29" width="143.76" height="0.19"/><rect class="cls-34" x="113.3" y="160.42" width="143.76" height="0.19"/><rect class="cls-34" x="113.3" y="160.54" width="143.76" height="0.19"/><rect class="cls-34" x="113.3" y="160.67" width="143.76" height="0.19"/><rect class="cls-34" x="113.3" y="160.79" width="143.76" height="0.19"/><rect class="cls-34" x="113.3" y="160.91" width="143.76" height="0.19"/><rect class="cls-34" x="113.3" y="161.04" width="143.76" height="0.19"/><rect class="cls-34" x="113.3" y="161.16" width="143.76" height="0.19"/><rect class="cls-34" x="113.3" y="161.28" width="143.76" height="0.19"/><rect class="cls-34" x="113.3" y="161.41" width="143.76" height="0.19"/><rect class="cls-34" x="113.3" y="161.53" width="143.76" height="0.19"/><rect class="cls-34" x="113.3" y="161.66" width="143.76" height="0.19"/><rect class="cls-34" x="113.3" y="161.78" width="143.76" height="0.19"/><rect class="cls-34" x="113.3" y="161.9" width="143.76" height="0.19"/><rect class="cls-35" x="113.3" y="162.03" width="143.76" height="0.19"/><rect class="cls-35" x="113.3" y="162.15" width="143.76" height="0.19"/><rect class="cls-35" x="113.3" y="162.27" width="143.76" height="0.19"/><rect class="cls-35" x="113.3" y="162.4" width="143.76" height="0.19"/><rect class="cls-35" x="113.3" y="162.52" width="143.76" height="0.19"/><rect class="cls-35" x="113.3" y="162.65" width="143.76" height="0.19"/><rect class="cls-35" x="113.3" y="162.77" width="143.76" height="0.19"/><rect class="cls-36" x="113.3" y="162.89" width="143.76" height="0.19"/><rect class="cls-36" x="113.3" y="163.02" width="143.76" height="0.19"/><rect class="cls-36" x="113.3" y="163.14" width="143.76" height="0.19"/><rect class="cls-36" x="113.3" y="163.26" width="143.76" height="0.19"/><rect class="cls-36" x="113.3" y="163.39" width="143.76" height="0.19"/><rect class="cls-36" x="113.3" y="163.51" width="143.76" height="0.19"/><rect class="cls-36" x="113.3" y="163.64" width="143.76" height="0.19"/><rect class="cls-37" x="113.3" y="163.76" width="143.76" height="0.19"/><rect class="cls-37" x="113.3" y="163.88" width="143.76" height="0.19"/><rect class="cls-37" x="113.3" y="164.01" width="143.76" height="0.19"/><rect class="cls-37" x="113.3" y="164.13" width="143.76" height="0.19"/><rect class="cls-37" x="113.3" y="164.25" width="143.76" height="0.19"/><rect class="cls-37" x="113.3" y="164.38" width="143.76" height="0.19"/><rect class="cls-37" x="113.3" y="164.5" width="143.76" height="0.19"/><rect class="cls-38" x="113.3" y="164.63" width="143.76" height="0.19"/><rect class="cls-38" x="113.3" y="164.75" width="143.76" height="0.19"/><rect class="cls-38" x="113.3" y="164.87" width="143.76" height="0.19"/><rect class="cls-38" x="113.3" y="165" width="143.76" height="0.19"/><rect class="cls-38" x="113.3" y="165.12" width="143.76" height="0.19"/><rect class="cls-38" x="113.3" y="165.24" width="143.76" height="0.19"/><rect class="cls-38" x="113.3" y="165.37" width="143.76" height="0.19"/><rect class="cls-39" x="113.3" y="165.49" width="143.76" height="0.19"/><rect class="cls-39" x="113.3" y="165.62" width="143.76" height="0.19"/><rect class="cls-39" x="113.3" y="165.74" width="143.76" height="0.19"/><rect class="cls-39" x="113.3" y="165.86" width="143.76" height="0.19"/><rect class="cls-39" x="113.3" y="165.99" width="143.76" height="0.19"/><rect class="cls-39" x="113.3" y="166.11" width="143.76" height="0.19"/><rect class="cls-39" x="113.3" y="166.23" width="143.76" height="0.19"/><rect class="cls-40" x="113.3" y="166.36" width="143.76" height="0.19"/><rect class="cls-40" x="113.3" y="166.48" width="143.76" height="0.19"/><rect class="cls-40" x="113.3" y="166.61" width="143.76" height="0.19"/><rect class="cls-40" x="113.3" y="166.73" width="143.76" height="0.19"/><rect class="cls-40" x="113.3" y="166.85" width="143.76" height="0.19"/><rect class="cls-40" x="113.3" y="166.98" width="143.76" height="0.19"/><rect class="cls-40" x="113.3" y="167.1" width="143.76" height="0.19"/><rect class="cls-40" x="113.3" y="167.22" width="143.76" height="0.19"/><rect class="cls-40" x="113.3" y="167.35" width="143.76" height="0.19"/><rect class="cls-40" x="113.3" y="167.47" width="143.76" height="0.19"/><rect class="cls-40" x="113.3" y="167.6" width="143.76" height="0.19"/><rect class="cls-40" x="113.3" y="167.72" width="143.76" height="0.19"/><rect class="cls-40" x="113.3" y="167.84" width="143.76" height="0.19"/><rect class="cls-40" x="113.3" y="167.97" width="143.76" height="0.19"/><rect class="cls-41" x="113.3" y="168.09" width="143.76" height="0.19"/><rect class="cls-41" x="113.3" y="168.21" width="143.76" height="0.19"/><rect class="cls-41" x="113.3" y="168.34" width="143.76" height="0.19"/><rect class="cls-41" x="113.3" y="168.46" width="143.76" height="0.19"/><rect class="cls-41" x="113.3" y="168.59" width="143.76" height="0.19"/><rect class="cls-41" x="113.3" y="168.71" width="143.76" height="0.19"/><rect class="cls-41" x="113.3" y="168.83" width="143.76" height="0.19"/><rect class="cls-42" x="113.3" y="168.96" width="143.76" height="0.19"/><rect class="cls-42" x="113.3" y="169.08" width="143.76" height="0.19"/><rect class="cls-42" x="113.3" y="169.2" width="143.76" height="0.19"/><rect class="cls-42" x="113.3" y="169.33" width="143.76" height="0.19"/><rect class="cls-42" x="113.3" y="169.45" width="143.76" height="0.19"/><rect class="cls-42" x="113.3" y="169.58" width="143.76" height="0.19"/><rect class="cls-42" x="113.3" y="169.7" width="143.76" height="0.19"/><rect class="cls-42" x="113.3" y="169.82" width="143.76" height="0.19"/><rect class="cls-42" x="113.3" y="169.95" width="143.76" height="0.19"/><rect class="cls-42" x="113.3" y="170.07" width="143.76" height="0.19"/><rect class="cls-42" x="113.3" y="170.19" width="143.76" height="0.19"/><rect class="cls-42" x="113.3" y="170.32" width="143.76" height="0.19"/><rect class="cls-42" x="113.3" y="170.44" width="143.76" height="0.19"/><rect class="cls-42" x="113.3" y="170.57" width="143.76" height="0.19"/><rect class="cls-42" x="113.3" y="170.69" width="143.76" height="0.19"/><rect class="cls-43" x="113.3" y="170.81" width="143.76" height="0.19"/><rect class="cls-43" x="113.3" y="170.94" width="143.76" height="0.19"/><rect class="cls-43" x="113.3" y="171.06" width="143.76" height="0.19"/><rect class="cls-43" x="113.3" y="171.18" width="143.76" height="0.19"/><rect class="cls-43" x="113.3" y="171.31" width="143.76" height="0.19"/><rect class="cls-43" x="113.3" y="171.43" width="143.76" height="0.19"/><rect class="cls-43" x="113.3" y="171.56" width="143.76" height="0.19"/><rect class="cls-44" x="113.3" y="171.68" width="143.76" height="0.19"/><rect class="cls-44" x="113.3" y="171.8" width="143.76" height="0.19"/><rect class="cls-44" x="113.3" y="171.93" width="143.76" height="0.19"/><rect class="cls-44" x="113.3" y="172.05" width="143.76" height="0.19"/><rect class="cls-44" x="113.3" y="172.17" width="143.76" height="0.19"/><rect class="cls-44" x="113.3" y="172.3" width="143.76" height="0.19"/><rect class="cls-44" x="113.3" y="172.42" width="143.76" height="0.19"/><rect class="cls-45" x="113.3" y="172.54" width="143.76" height="0.19"/><rect class="cls-45" x="113.3" y="172.67" width="143.76" height="0.19"/><rect class="cls-45" x="113.3" y="172.79" width="143.76" height="0.19"/><rect class="cls-45" x="113.3" y="172.92" width="143.76" height="0.19"/><rect class="cls-45" x="113.3" y="173.04" width="143.76" height="0.19"/><rect class="cls-45" x="113.3" y="173.16" width="143.76" height="0.19"/><rect class="cls-45" x="113.3" y="173.29" width="143.76" height="0.19"/><rect class="cls-45" x="113.3" y="173.41" width="143.76" height="0.19"/><rect class="cls-45" x="113.3" y="173.53" width="143.76" height="0.19"/><rect class="cls-45" x="113.3" y="173.66" width="143.76" height="0.19"/><rect class="cls-45" x="113.3" y="173.78" width="143.76" height="0.19"/><rect class="cls-45" x="113.3" y="173.91" width="143.76" height="0.19"/><rect class="cls-45" x="113.3" y="174.03" width="143.76" height="0.19"/><rect class="cls-45" x="113.3" y="174.15" width="143.76" height="0.19"/><rect class="cls-46" x="113.3" y="174.28" width="143.76" height="0.19"/><rect class="cls-46" x="113.3" y="174.4" width="143.76" height="0.19"/><rect class="cls-46" x="113.3" y="174.52" width="143.76" height="0.19"/><rect class="cls-46" x="113.3" y="174.65" width="143.76" height="0.19"/><rect class="cls-46" x="113.3" y="174.77" width="143.76" height="0.19"/><rect class="cls-46" x="113.3" y="174.9" width="143.76" height="0.19"/><rect class="cls-46" x="113.3" y="175.02" width="143.76" height="0.19"/><rect class="cls-47" x="113.3" y="175.14" width="143.76" height="0.19"/><rect class="cls-47" x="113.3" y="175.27" width="143.76" height="0.19"/><rect class="cls-47" x="113.3" y="175.39" width="143.76" height="0.19"/><rect class="cls-47" x="113.3" y="175.51" width="143.76" height="0.19"/><rect class="cls-47" x="113.3" y="175.64" width="143.76" height="0.19"/><rect class="cls-47" x="113.3" y="175.76" width="143.76" height="0.19"/><rect class="cls-47" x="113.3" y="175.89" width="143.76" height="0.19"/><rect class="cls-48" x="113.3" y="176.01" width="143.76" height="0.19"/><rect class="cls-48" x="113.3" y="176.13" width="143.76" height="0.19"/><rect class="cls-48" x="113.3" y="176.26" width="143.76" height="0.19"/><rect class="cls-48" x="113.3" y="176.38" width="143.76" height="0.19"/><rect class="cls-48" x="113.3" y="176.5" width="143.76" height="0.19"/><rect class="cls-48" x="113.3" y="176.63" width="143.76" height="0.19"/><rect class="cls-48" x="113.3" y="176.75" width="143.76" height="0.19"/><rect class="cls-48" x="113.3" y="176.88" width="143.76" height="0.19"/><rect class="cls-48" x="113.3" y="177" width="143.76" height="0.19"/><rect class="cls-48" x="113.3" y="177.12" width="143.76" height="0.19"/><rect class="cls-48" x="113.3" y="177.25" width="143.76" height="0.19"/><rect class="cls-48" x="113.3" y="177.37" width="143.76" height="0.19"/><rect class="cls-48" x="113.3" y="177.49" width="143.76" height="0.19"/><rect class="cls-48" x="113.3" y="177.62" width="143.76" height="0.19"/><rect class="cls-49" x="113.3" y="177.74" width="143.76" height="0.19"/><rect class="cls-49" x="113.3" y="177.87" width="143.76" height="0.19"/><rect class="cls-49" x="113.3" y="177.99" width="143.76" height="0.19"/><rect class="cls-49" x="113.3" y="178.11" width="143.76" height="0.19"/><rect class="cls-49" x="113.3" y="178.24" width="143.76" height="0.19"/><rect class="cls-49" x="113.3" y="178.36" width="143.76" height="0.19"/><rect class="cls-49" x="113.3" y="178.48" width="143.76" height="0.19"/><rect class="cls-50" x="113.3" y="178.61" width="143.76" height="0.19"/><rect class="cls-50" x="113.3" y="178.73" width="143.76" height="0.19"/><rect class="cls-50" x="113.3" y="178.86" width="143.76" height="0.19"/><rect class="cls-50" x="113.3" y="178.98" width="143.76" height="0.19"/><rect class="cls-50" x="113.3" y="179.1" width="143.76" height="0.19"/><rect class="cls-50" x="113.3" y="179.23" width="143.76" height="0.19"/><rect class="cls-50" x="113.3" y="179.35" width="143.76" height="0.19"/><rect class="cls-51" x="113.3" y="179.47" width="143.76" height="0.19"/><rect class="cls-51" x="113.3" y="179.6" width="143.76" height="0.19"/><rect class="cls-51" x="113.3" y="179.72" width="143.76" height="0.19"/><rect class="cls-51" x="113.3" y="179.85" width="143.76" height="0.19"/><rect class="cls-51" x="113.3" y="179.97" width="143.76" height="0.19"/><rect class="cls-51" x="113.3" y="180.09" width="143.76" height="0.19"/><rect class="cls-51" x="113.3" y="180.22" width="143.76" height="0.19"/><rect class="cls-52" x="113.3" y="180.34" width="143.76" height="0.19"/><rect class="cls-52" x="113.3" y="180.46" width="143.76" height="0.19"/><rect class="cls-52" x="113.3" y="180.59" width="143.76" height="0.19"/><rect class="cls-52" x="113.3" y="180.71" width="143.76" height="0.19"/><rect class="cls-52" x="113.3" y="180.84" width="143.76" height="0.19"/><rect class="cls-52" x="113.3" y="180.96" width="143.76" height="0.19"/><rect class="cls-52" x="113.3" y="181.08" width="143.76" height="0.19"/><rect class="cls-53" x="113.3" y="181.21" width="143.76" height="0.19"/><rect class="cls-53" x="113.3" y="181.33" width="143.76" height="0.19"/><rect class="cls-53" x="113.3" y="181.45" width="143.76" height="0.19"/><rect class="cls-53" x="113.3" y="181.58" width="143.76" height="0.19"/><rect class="cls-53" x="113.3" y="181.7" width="143.76" height="0.19"/><rect class="cls-53" x="113.3" y="181.83" width="143.76" height="0.19"/><rect class="cls-53" x="113.3" y="181.95" width="143.76" height="0.19"/><rect class="cls-54" x="113.3" y="182.07" width="143.76" height="0.19"/><rect class="cls-54" x="113.3" y="182.2" width="143.76" height="0.19"/><rect class="cls-54" x="113.3" y="182.32" width="143.76" height="0.19"/><rect class="cls-54" x="113.3" y="182.44" width="143.76" height="0.19"/><rect class="cls-54" x="113.3" y="182.57" width="143.76" height="0.19"/><rect class="cls-54" x="113.3" y="182.69" width="143.76" height="0.19"/><rect class="cls-54" x="113.3" y="182.82" width="143.76" height="0.19"/><rect class="cls-54" x="113.3" y="182.94" width="143.76" height="0.19"/><rect class="cls-54" x="113.3" y="183.06" width="143.76" height="0.19"/><rect class="cls-54" x="113.3" y="183.19" width="143.76" height="0.19"/><rect class="cls-54" x="113.3" y="183.31" width="143.76" height="0.19"/><rect class="cls-54" x="113.3" y="183.43" width="143.76" height="0.19"/><rect class="cls-54" x="113.3" y="183.56" width="143.76" height="0.19"/><rect class="cls-54" x="113.3" y="183.68" width="143.76" height="0.19"/><rect class="cls-55" x="113.3" y="183.8" width="143.76" height="0.19"/><rect class="cls-55" x="113.3" y="183.93" width="143.76" height="0.19"/><rect class="cls-55" x="113.3" y="184.05" width="143.76" height="0.19"/><rect class="cls-55" x="113.3" y="184.18" width="143.76" height="0.19"/><rect class="cls-55" x="113.3" y="184.3" width="143.76" height="0.19"/><rect class="cls-55" x="113.3" y="184.42" width="143.76" height="0.19"/><rect class="cls-55" x="113.3" y="184.55" width="143.76" height="0.19"/><rect class="cls-56" x="113.3" y="184.67" width="143.76" height="0.19"/><rect class="cls-56" x="113.3" y="184.79" width="143.76" height="0.19"/><rect class="cls-56" x="113.3" y="184.92" width="143.76" height="0.19"/><rect class="cls-56" x="113.3" y="185.04" width="143.76" height="0.19"/><rect class="cls-56" x="113.3" y="185.17" width="143.76" height="0.19"/><rect class="cls-56" x="113.3" y="185.29" width="143.76" height="0.19"/><rect class="cls-56" x="113.3" y="185.41" width="143.76" height="0.19"/><rect class="cls-57" x="113.3" y="185.54" width="143.76" height="0.19"/><rect class="cls-57" x="113.3" y="185.66" width="143.76" height="0.19"/><rect class="cls-57" x="113.3" y="185.78" width="143.76" height="0.19"/><rect class="cls-57" x="113.3" y="185.91" width="143.76" height="0.19"/><rect class="cls-57" x="113.3" y="186.03" width="143.76" height="0.19"/><rect class="cls-57" x="113.3" y="186.16" width="143.76" height="0.19"/><rect class="cls-57" x="113.3" y="186.28" width="143.76" height="0.19"/><rect class="cls-58" x="113.3" y="186.4" width="143.76" height="0.19"/><rect class="cls-58" x="113.3" y="186.53" width="143.76" height="0.19"/><rect class="cls-58" x="113.3" y="186.65" width="143.76" height="0.19"/><rect class="cls-58" x="113.3" y="186.77" width="143.76" height="0.19"/><rect class="cls-58" x="113.3" y="186.9" width="143.76" height="0.19"/><rect class="cls-58" x="113.3" y="187.02" width="143.76" height="0.19"/><rect class="cls-58" x="113.3" y="187.15" width="143.76" height="0.19"/><rect class="cls-59" x="113.3" y="187.27" width="143.76" height="0.19"/><rect class="cls-59" x="113.3" y="187.39" width="143.76" height="0.19"/><rect class="cls-59" x="113.3" y="187.52" width="143.76" height="0.19"/><rect class="cls-59" x="113.3" y="187.64" width="143.76" height="0.19"/><rect class="cls-59" x="113.3" y="187.76" width="143.76" height="0.19"/><rect class="cls-59" x="113.3" y="187.89" width="143.76" height="0.19"/><rect class="cls-60" x="113.3" y="188.01" width="143.76" height="0.19"/><rect class="cls-60" x="113.3" y="188.14" width="143.76" height="0.19"/><rect class="cls-60" x="113.3" y="188.26" width="143.76" height="0.19"/><rect class="cls-60" x="113.3" y="188.38" width="143.76" height="0.19"/><rect class="cls-60" x="113.3" y="188.51" width="143.76" height="0.19"/><rect class="cls-60" x="113.3" y="188.63" width="143.76" height="0.19"/><rect class="cls-61" x="113.3" y="188.75" width="143.76" height="0.19"/><rect class="cls-61" x="113.3" y="188.88" width="143.76" height="0.19"/><rect class="cls-61" x="113.3" y="189" width="143.76" height="0.19"/><rect class="cls-61" x="113.3" y="189.13" width="143.76" height="0.19"/><rect class="cls-61" x="113.3" y="189.25" width="143.76" height="0.19"/><rect class="cls-61" x="113.3" y="189.37" width="143.76" height="0.19"/><rect class="cls-62" x="113.3" y="189.5" width="143.76" height="0.19"/><rect class="cls-62" x="113.3" y="189.62" width="143.76" height="0.19"/><rect class="cls-62" x="113.3" y="189.74" width="143.76" height="0.19"/><rect class="cls-62" x="113.3" y="189.87" width="143.76" height="0.19"/><rect class="cls-62" x="113.3" y="189.99" width="143.76" height="0.19"/><rect class="cls-62" x="113.3" y="190.12" width="143.76" height="0.19"/><rect class="cls-63" x="113.3" y="190.24" width="143.76" height="0.19"/><rect class="cls-63" x="113.3" y="190.36" width="143.76" height="0.19"/><rect class="cls-63" x="113.3" y="190.49" width="143.76" height="0.19"/><rect class="cls-63" x="113.3" y="190.61" width="143.76" height="0.19"/><rect class="cls-63" x="113.3" y="190.73" width="143.76" height="0.19"/><rect class="cls-63" x="113.3" y="190.86" width="143.76" height="0.19"/><rect class="cls-64" x="113.3" y="190.98" width="143.76" height="0.19"/><rect class="cls-64" x="113.3" y="191.11" width="143.76" height="0.19"/><rect class="cls-64" x="113.3" y="191.23" width="143.76" height="0.19"/><rect class="cls-64" x="113.3" y="191.35" width="143.76" height="0.19"/><rect class="cls-64" x="113.3" y="191.48" width="143.76" height="0.19"/><rect class="cls-64" x="113.3" y="191.6" width="143.76" height="0.19"/><rect class="cls-64" x="113.3" y="191.72" width="143.76" height="0.19"/><rect class="cls-64" x="113.3" y="191.85" width="143.76" height="0.19"/><rect class="cls-64" x="113.3" y="191.97" width="143.76" height="0.19"/><rect class="cls-64" x="113.3" y="192.1" width="143.76" height="0.19"/><rect class="cls-64" x="113.3" y="192.22" width="143.76" height="0.19"/><rect class="cls-64" x="113.3" y="192.34" width="143.76" height="0.19"/><rect class="cls-65" x="113.3" y="192.47" width="143.76" height="0.19"/><rect class="cls-65" x="113.3" y="192.59" width="143.76" height="0.19"/><rect class="cls-65" x="113.3" y="192.71" width="143.76" height="0.19"/><rect class="cls-65" x="113.3" y="192.84" width="143.76" height="0.19"/><rect class="cls-65" x="113.3" y="192.96" width="143.76" height="0.19"/><rect class="cls-65" x="113.3" y="193.09" width="143.76" height="0.19"/><rect class="cls-66" x="113.3" y="193.21" width="143.76" height="0.19"/><rect class="cls-66" x="113.3" y="193.33" width="143.76" height="0.19"/><rect class="cls-66" x="113.3" y="193.46" width="143.76" height="0.19"/><rect class="cls-66" x="113.3" y="193.58" width="143.76" height="0.19"/><rect class="cls-66" x="113.3" y="193.7" width="143.76" height="0.19"/><rect class="cls-66" x="113.3" y="193.83" width="143.76" height="0.19"/><rect class="cls-67" x="113.3" y="193.95" width="143.76" height="0.19"/><rect class="cls-67" x="113.3" y="194.08" width="143.76" height="0.19"/><rect class="cls-67" x="113.3" y="194.2" width="143.76" height="0.19"/><rect class="cls-67" x="113.3" y="194.32" width="143.76" height="0.19"/><rect class="cls-67" x="113.3" y="194.45" width="143.76" height="0.19"/><rect class="cls-67" x="113.3" y="194.57" width="143.76" height="0.19"/><rect class="cls-67" x="113.3" y="194.69" width="143.76" height="0.19"/><rect class="cls-67" x="113.3" y="194.82" width="143.76" height="0.19"/><rect class="cls-67" x="113.3" y="194.94" width="143.76" height="0.19"/><rect class="cls-67" x="113.3" y="195.06" width="143.76" height="0.19"/><rect class="cls-67" x="113.3" y="195.19" width="143.76" height="0.19"/><rect class="cls-67" x="113.3" y="195.31" width="143.76" height="0.19"/><rect class="cls-68" x="113.3" y="195.44" width="143.76" height="0.19"/><rect class="cls-68" x="113.3" y="195.56" width="143.76" height="0.19"/><rect class="cls-68" x="113.3" y="195.68" width="143.76" height="0.19"/><rect class="cls-68" x="113.3" y="195.81" width="143.76" height="0.19"/><rect class="cls-68" x="113.3" y="195.93" width="143.76" height="0.19"/><rect class="cls-68" x="113.3" y="196.05" width="143.76" height="0.19"/><rect class="cls-69" x="113.3" y="196.18" width="143.76" height="0.19"/><rect class="cls-69" x="113.3" y="196.3" width="143.76" height="0.19"/><rect class="cls-69" x="113.3" y="196.43" width="143.76" height="0.19"/><rect class="cls-69" x="113.3" y="196.55" width="143.76" height="0.19"/><rect class="cls-69" x="113.3" y="196.67" width="143.76" height="0.19"/><rect class="cls-69" x="113.3" y="196.8" width="143.76" height="0.19"/><rect class="cls-70" x="113.3" y="196.92" width="143.76" height="0.19"/><rect class="cls-70" x="113.3" y="197.04" width="143.76" height="0.19"/><rect class="cls-70" x="113.3" y="197.17" width="143.76" height="0.19"/><rect class="cls-70" x="113.3" y="197.29" width="143.76" height="0.19"/><rect class="cls-70" x="113.3" y="197.42" width="143.76" height="0.19"/><rect class="cls-70" x="113.3" y="197.54" width="143.76" height="0.19"/><rect class="cls-70" x="113.3" y="197.66" width="143.76" height="0.19"/><rect class="cls-70" x="113.3" y="197.79" width="143.76" height="0.19"/><rect class="cls-70" x="113.3" y="197.91" width="143.76" height="0.19"/><rect class="cls-70" x="113.3" y="198.03" width="143.76" height="0.19"/><rect class="cls-70" x="113.3" y="198.16" width="143.76" height="0.19"/><rect class="cls-70" x="113.3" y="198.28" width="143.76" height="0.19"/><rect class="cls-71" x="113.3" y="198.41" width="143.76" height="0.19"/><rect class="cls-71" x="113.3" y="198.53" width="143.76" height="0.19"/><rect class="cls-71" x="113.3" y="198.65" width="143.76" height="0.19"/><rect class="cls-71" x="113.3" y="198.78" width="143.76" height="0.19"/><rect class="cls-71" x="113.3" y="198.9" width="143.76" height="0.19"/><rect class="cls-71" x="113.3" y="199.02" width="143.76" height="0.19"/><rect class="cls-72" x="113.3" y="199.15" width="143.76" height="0.19"/><rect class="cls-72" x="113.3" y="199.27" width="143.76" height="0.19"/><rect class="cls-72" x="113.3" y="199.4" width="143.76" height="0.19"/><rect class="cls-72" x="113.3" y="199.52" width="143.76" height="0.19"/><rect class="cls-72" x="113.3" y="199.64" width="143.76" height="0.19"/><rect class="cls-72" x="113.3" y="199.77" width="143.76" height="0.19"/><rect class="cls-73" x="113.3" y="199.89" width="143.76" height="0.19"/><rect class="cls-73" x="113.3" y="200.01" width="143.76" height="0.19"/><rect class="cls-73" x="113.3" y="200.14" width="143.76" height="0.19"/><rect class="cls-73" x="113.3" y="200.26" width="143.76" height="0.19"/><rect class="cls-73" x="113.3" y="200.39" width="143.76" height="0.19"/><rect class="cls-73" x="113.3" y="200.51" width="143.76" height="0.19"/><rect class="cls-73" x="113.3" y="200.63" width="143.76" height="0.19"/><rect class="cls-73" x="113.3" y="200.76" width="143.76" height="0.19"/><rect class="cls-73" x="113.3" y="200.88" width="143.76" height="0.19"/><rect class="cls-73" x="113.3" y="201" width="143.76" height="0.19"/><rect class="cls-73" x="113.3" y="201.13" width="143.76" height="0.19"/><rect class="cls-73" x="113.3" y="201.25" width="143.76" height="0.19"/><rect class="cls-74" x="113.3" y="201.38" width="143.76" height="0.19"/><rect class="cls-74" x="113.3" y="201.5" width="143.76" height="0.19"/><rect class="cls-74" x="113.3" y="201.62" width="143.76" height="0.19"/><rect class="cls-74" x="113.3" y="201.75" width="143.76" height="0.19"/><rect class="cls-74" x="113.3" y="201.87" width="143.76" height="0.19"/><rect class="cls-74" x="113.3" y="201.99" width="143.76" height="0.19"/><rect class="cls-75" x="113.3" y="202.12" width="143.76" height="0.19"/><rect class="cls-75" x="113.3" y="202.24" width="143.76" height="0.19"/><rect class="cls-75" x="113.3" y="202.37" width="143.76" height="0.19"/><rect class="cls-75" x="113.3" y="202.49" width="143.76" height="0.19"/><rect class="cls-75" x="113.3" y="202.61" width="143.76" height="0.19"/><rect class="cls-75" x="113.3" y="202.74" width="143.76" height="0.19"/><rect class="cls-75" x="113.3" y="202.86" width="143.76" height="0.19"/><rect class="cls-75" x="113.3" y="202.98" width="143.76" height="0.19"/><rect class="cls-75" x="113.3" y="203.11" width="143.76" height="0.19"/><rect class="cls-75" x="113.3" y="203.23" width="143.76" height="0.19"/><rect class="cls-75" x="113.3" y="203.36" width="143.76" height="0.19"/><rect class="cls-75" x="113.3" y="203.48" width="143.76" height="0.19"/><rect class="cls-76" x="113.3" y="203.6" width="143.76" height="0.19"/><rect class="cls-76" x="113.3" y="203.73" width="143.76" height="0.19"/><rect class="cls-76" x="113.3" y="203.85" width="143.76" height="0.19"/><rect class="cls-76" x="113.3" y="203.97" width="143.76" height="0.19"/><rect class="cls-76" x="113.3" y="204.1" width="143.76" height="0.19"/><rect class="cls-76" x="113.3" y="204.22" width="143.76" height="0.19"/><rect class="cls-77" x="113.3" y="204.35" width="143.76" height="0.19"/><rect class="cls-77" x="113.3" y="204.47" width="143.76" height="0.19"/><rect class="cls-77" x="113.3" y="204.59" width="143.76" height="0.19"/><rect class="cls-77" x="113.3" y="204.72" width="143.76" height="0.19"/><rect class="cls-77" x="113.3" y="204.84" width="143.76" height="0.19"/><rect class="cls-77" x="113.3" y="204.96" width="143.76" height="0.19"/><rect class="cls-78" x="113.3" y="205.09" width="143.76" height="0.19"/><rect class="cls-78" x="113.3" y="205.21" width="143.76" height="0.19"/><rect class="cls-78" x="113.3" y="205.34" width="143.76" height="0.19"/><rect class="cls-78" x="113.3" y="205.46" width="143.76" height="0.19"/><rect class="cls-78" x="113.3" y="205.58" width="143.76" height="0.19"/><rect class="cls-78" x="113.3" y="205.71" width="143.76" height="0.19"/><rect class="cls-79" x="113.3" y="205.83" width="143.76" height="0.19"/><rect class="cls-79" x="113.3" y="205.95" width="143.76" height="0.19"/><rect class="cls-79" x="113.3" y="206.08" width="143.76" height="0.19"/><rect class="cls-79" x="113.3" y="206.2" width="143.76" height="0.19"/><rect class="cls-79" x="113.3" y="206.33" width="143.76" height="0.19"/><rect class="cls-79" x="113.3" y="206.45" width="143.76" height="0.19"/><rect class="cls-80" x="113.3" y="206.57" width="143.76" height="0.19"/><rect class="cls-80" x="113.3" y="206.7" width="143.76" height="0.19"/><rect class="cls-80" x="113.3" y="206.82" width="143.76" height="0.19"/><rect class="cls-80" x="113.3" y="206.94" width="143.76" height="0.19"/><rect class="cls-80" x="113.3" y="207.07" width="143.76" height="0.19"/><rect class="cls-80" x="113.3" y="207.19" width="143.76" height="0.19"/><rect class="cls-81" x="113.3" y="207.32" width="143.76" height="0.19"/><rect class="cls-81" x="113.3" y="207.44" width="143.76" height="0.19"/><rect class="cls-81" x="113.3" y="207.56" width="143.76" height="0.19"/><rect class="cls-81" x="113.3" y="207.69" width="143.76" height="0.19"/><rect class="cls-81" x="113.3" y="207.81" width="143.76" height="0.19"/><rect class="cls-81" x="113.3" y="207.93" width="143.76" height="0.19"/><rect class="cls-82" x="113.3" y="208.06" width="143.76" height="0.19"/><rect class="cls-82" x="113.3" y="208.18" width="143.76" height="0.19"/><rect class="cls-82" x="113.3" y="208.31" width="143.76" height="0.19"/><rect class="cls-82" x="113.3" y="208.43" width="143.76" height="0.19"/><rect class="cls-82" x="113.3" y="208.55" width="143.76" height="0.19"/><rect class="cls-82" x="113.3" y="208.68" width="143.76" height="0.19"/><rect class="cls-82" x="113.3" y="208.8" width="143.76" height="0.19"/><rect class="cls-82" x="113.3" y="208.92" width="143.76" height="0.19"/><rect class="cls-82" x="113.3" y="209.05" width="143.76" height="0.19"/><rect class="cls-82" x="113.3" y="209.17" width="143.76" height="0.19"/><rect class="cls-82" x="113.3" y="209.29" width="143.76" height="0.19"/><rect class="cls-82" x="113.3" y="209.42" width="143.76" height="0.19"/><rect class="cls-83" x="113.3" y="209.54" width="143.76" height="0.19"/><rect class="cls-83" x="113.3" y="209.67" width="143.76" height="0.19"/><rect class="cls-83" x="113.3" y="209.79" width="143.76" height="0.19"/><rect class="cls-83" x="113.3" y="209.91" width="143.76" height="0.19"/><rect class="cls-83" x="113.3" y="210.04" width="143.76" height="0.19"/><rect class="cls-83" x="113.3" y="210.16" width="143.76" height="0.19"/><rect class="cls-84" x="113.3" y="210.28" width="143.76" height="0.19"/><rect class="cls-84" x="113.3" y="210.41" width="143.76" height="0.19"/><rect class="cls-84" x="113.3" y="210.53" width="143.76" height="0.19"/><rect class="cls-84" x="113.3" y="210.66" width="143.76" height="0.19"/><rect class="cls-84" x="113.3" y="210.78" width="143.76" height="0.19"/><rect class="cls-84" x="113.3" y="210.9" width="143.76" height="0.19"/><rect class="cls-84" x="113.3" y="211.03" width="143.76" height="0.19"/><rect class="cls-84" x="113.3" y="211.15" width="143.76" height="0.19"/><rect class="cls-84" x="113.3" y="211.27" width="143.76" height="0.19"/><rect class="cls-84" x="113.3" y="211.4" width="143.76" height="0.19"/><rect class="cls-84" x="113.3" y="211.52" width="143.76" height="0.19"/><rect class="cls-84" x="113.3" y="211.65" width="143.76" height="0.19"/><rect class="cls-85" x="113.3" y="211.77" width="143.76" height="0.19"/><rect class="cls-85" x="113.3" y="211.89" width="143.76" height="0.19"/><rect class="cls-85" x="113.3" y="212.02" width="143.76" height="0.19"/><rect class="cls-85" x="113.3" y="212.14" width="143.76" height="0.19"/><rect class="cls-85" x="113.3" y="212.26" width="143.76" height="0.19"/><rect class="cls-85" x="113.3" y="212.39" width="143.76" height="0.19"/><rect class="cls-86" x="113.3" y="212.51" width="143.76" height="0.19"/><rect class="cls-86" x="113.3" y="212.64" width="143.76" height="0.19"/><rect class="cls-86" x="113.3" y="212.76" width="143.76" height="0.19"/><rect class="cls-86" x="113.3" y="212.88" width="143.76" height="0.19"/><rect class="cls-86" x="113.3" y="213.01" width="143.76" height="0.19"/><rect class="cls-86" x="113.3" y="213.13" width="143.76" height="0.19"/><rect class="cls-87" x="113.3" y="213.25" width="143.76" height="0.19"/><rect class="cls-87" x="113.3" y="213.38" width="143.76" height="0.19"/><rect class="cls-87" x="113.3" y="213.5" width="143.76" height="0.19"/><rect class="cls-87" x="113.3" y="213.63" width="143.76" height="0.19"/><rect class="cls-87" x="113.3" y="213.75" width="143.76" height="0.19"/><rect class="cls-87" x="113.3" y="213.87" width="143.76" height="0.19"/><rect class="cls-88" x="113.3" y="214" width="143.76" height="0.19"/><rect class="cls-88" x="113.3" y="214.12" width="143.76" height="0.19"/><rect class="cls-88" x="113.3" y="214.24" width="143.76" height="0.19"/><rect class="cls-88" x="113.3" y="214.37" width="143.76" height="0.19"/><rect class="cls-88" x="113.3" y="214.49" width="143.76" height="0.19"/><rect class="cls-88" x="113.3" y="214.62" width="143.76" height="0.19"/><rect class="cls-89" x="113.3" y="214.74" width="143.76" height="0.19"/><rect class="cls-89" x="113.3" y="214.86" width="143.76" height="0.19"/><rect class="cls-89" x="113.3" y="214.99" width="143.76" height="0.19"/><rect class="cls-89" x="113.3" y="215.11" width="143.76" height="0.19"/><rect class="cls-89" x="113.3" y="215.23" width="143.76" height="0.19"/><rect class="cls-89" x="113.3" y="215.36" width="143.76" height="0.19"/><rect class="cls-90" x="113.3" y="215.48" width="143.76" height="0.19"/><rect class="cls-90" x="113.3" y="215.61" width="143.76" height="0.19"/><rect class="cls-90" x="113.3" y="215.73" width="143.76" height="0.19"/><rect class="cls-90" x="113.3" y="215.85" width="143.76" height="0.19"/><rect class="cls-90" x="113.3" y="215.98" width="143.76" height="0.19"/><rect class="cls-90" x="113.3" y="216.1" width="143.76" height="0.19"/><rect class="cls-91" x="113.3" y="216.22" width="143.76" height="0.19"/><rect class="cls-91" x="113.3" y="216.35" width="143.76" height="0.19"/><rect class="cls-91" x="113.3" y="216.47" width="143.76" height="0.19"/><rect class="cls-91" x="113.3" y="216.6" width="143.76" height="0.19"/><rect class="cls-91" x="113.3" y="216.72" width="143.76" height="0.19"/><rect class="cls-91" x="113.3" y="216.84" width="143.76" height="0.19"/><rect class="cls-91" x="113.3" y="216.97" width="143.76" height="0.19"/><rect class="cls-91" x="113.3" y="217.09" width="143.76" height="0.19"/><rect class="cls-91" x="113.3" y="217.21" width="143.76" height="0.19"/><rect class="cls-91" x="113.3" y="217.34" width="143.76" height="0.19"/><rect class="cls-91" x="113.3" y="217.46" width="143.76" height="0.19"/><rect class="cls-91" x="113.3" y="217.59" width="143.76" height="0.19"/><rect class="cls-92" x="113.3" y="217.71" width="143.76" height="0.19"/><rect class="cls-92" x="113.3" y="217.83" width="143.76" height="0.19"/><rect class="cls-92" x="113.3" y="217.96" width="143.76" height="0.19"/><rect class="cls-92" x="113.3" y="218.08" width="143.76" height="0.19"/><rect class="cls-92" x="113.3" y="218.2" width="143.76" height="0.19"/><rect class="cls-92" x="113.3" y="218.33" width="143.76" height="0.19"/><rect class="cls-93" x="113.3" y="218.45" width="143.76" height="0.19"/><rect class="cls-93" x="113.3" y="218.58" width="143.76" height="0.19"/><rect class="cls-93" x="113.3" y="218.7" width="143.76" height="0.19"/><rect class="cls-93" x="113.3" y="218.82" width="143.76" height="0.19"/><rect class="cls-93" x="113.3" y="218.95" width="143.76" height="0.19"/><rect class="cls-93" x="113.3" y="219.07" width="143.76" height="0.19"/><rect class="cls-93" x="113.3" y="219.19" width="143.76" height="0.19"/><rect class="cls-93" x="113.3" y="219.32" width="143.76" height="0.19"/><rect class="cls-93" x="113.3" y="219.44" width="143.76" height="0.19"/><rect class="cls-93" x="113.3" y="219.57" width="143.76" height="0.19"/><rect class="cls-93" x="113.3" y="219.69" width="143.76" height="0.19"/><rect class="cls-93" x="113.3" y="219.81" width="143.76" height="0.19"/><rect class="cls-94" x="113.3" y="219.94" width="143.76" height="0.19"/><rect class="cls-94" x="113.3" y="220.06" width="143.76" height="0.19"/><rect class="cls-94" x="113.3" y="220.18" width="143.76" height="0.19"/><rect class="cls-94" x="113.3" y="220.31" width="143.76" height="0.19"/><rect class="cls-94" x="113.3" y="220.43" width="143.76" height="0.19"/><rect class="cls-94" x="113.3" y="220.55" width="143.76" height="0.19"/><rect class="cls-95" x="113.3" y="220.68" width="143.76" height="0.19"/><rect class="cls-95" x="113.3" y="220.8" width="143.76" height="0.19"/><rect class="cls-95" x="113.3" y="220.93" width="143.76" height="0.19"/><rect class="cls-95" x="113.3" y="221.05" width="143.76" height="0.19"/><rect class="cls-95" x="113.3" y="221.17" width="143.76" height="0.19"/><rect class="cls-95" x="113.3" y="221.3" width="143.76" height="0.19"/><rect class="cls-96" x="113.3" y="221.42" width="143.76" height="0.19"/><rect class="cls-96" x="113.3" y="221.54" width="143.76" height="0.19"/><rect class="cls-96" x="113.3" y="221.67" width="143.76" height="0.19"/><rect class="cls-96" x="113.3" y="221.79" width="143.76" height="0.19"/><rect class="cls-96" x="113.3" y="221.92" width="143.76" height="0.19"/><rect class="cls-96" x="113.3" y="222.04" width="143.76" height="0.19"/><rect class="cls-97" x="113.3" y="222.16" width="143.76" height="0.19"/><rect class="cls-97" x="113.3" y="222.29" width="143.76" height="0.19"/><rect class="cls-97" x="113.3" y="222.41" width="143.76" height="0.19"/><rect class="cls-97" x="113.3" y="222.53" width="143.76" height="0.19"/><rect class="cls-97" x="113.3" y="222.66" width="143.76" height="0.19"/><rect class="cls-97" x="113.3" y="222.78" width="143.76" height="0.19"/><rect class="cls-98" x="113.3" y="222.91" width="143.76" height="0.19"/><rect class="cls-98" x="113.3" y="223.03" width="143.76" height="0.19"/><rect class="cls-98" x="113.3" y="223.15" width="143.76" height="0.19"/><rect class="cls-98" x="113.3" y="223.28" width="143.76" height="0.19"/><rect class="cls-98" x="113.3" y="223.4" width="143.76" height="0.19"/><rect class="cls-98" x="113.3" y="223.52" width="143.76" height="0.19"/><rect class="cls-99" x="113.3" y="223.65" width="143.76" height="0.19"/><rect class="cls-99" x="113.3" y="223.77" width="143.76" height="0.19"/><rect class="cls-99" x="113.3" y="223.9" width="143.76" height="0.19"/><rect class="cls-99" x="113.3" y="224.02" width="143.76" height="0.19"/><rect class="cls-99" x="113.3" y="224.14" width="143.76" height="0.19"/><rect class="cls-99" x="113.3" y="224.27" width="143.76" height="0.19"/><rect class="cls-100" x="113.3" y="224.39" width="143.76" height="0.19"/><rect class="cls-100" x="113.3" y="224.51" width="143.76" height="0.19"/><rect class="cls-100" x="113.3" y="224.64" width="143.76" height="0.19"/><rect class="cls-100" x="113.3" y="224.76" width="143.76" height="0.19"/><rect class="cls-100" x="113.3" y="224.89" width="143.76" height="0.19"/><rect class="cls-100" x="113.3" y="225.01" width="143.76" height="0.19"/><rect class="cls-100" x="113.3" y="225.13" width="143.76" height="0.19"/><rect class="cls-100" x="113.3" y="225.26" width="143.76" height="0.19"/><rect class="cls-100" x="113.3" y="225.38" width="143.76" height="0.19"/><rect class="cls-100" x="113.3" y="225.5" width="143.76" height="0.19"/><rect class="cls-100" x="113.3" y="225.63" width="143.76" height="0.19"/><rect class="cls-100" x="113.3" y="225.75" width="143.76" height="0.19"/><rect class="cls-101" x="113.3" y="225.88" width="143.76" height="0.19"/><rect class="cls-101" x="113.3" y="226" width="143.76" height="0.19"/><rect class="cls-101" x="113.3" y="226.12" width="143.76" height="0.19"/><rect class="cls-101" x="113.3" y="226.25" width="143.76" height="0.19"/><rect class="cls-101" x="113.3" y="226.37" width="143.76" height="0.19"/><rect class="cls-101" x="113.3" y="226.49" width="143.76" height="0.19"/><rect class="cls-102" x="113.3" y="226.62" width="143.76" height="0.19"/><rect class="cls-102" x="113.3" y="226.74" width="143.76" height="0.19"/><rect class="cls-102" x="113.3" y="226.87" width="143.76" height="0.19"/><rect class="cls-102" x="113.3" y="226.99" width="143.76" height="0.19"/><rect class="cls-102" x="113.3" y="227.11" width="143.76" height="0.19"/><rect class="cls-102" x="113.3" y="227.24" width="143.76" height="0.19"/><rect class="cls-103" x="113.3" y="227.36" width="143.76" height="0.19"/><rect class="cls-103" x="113.3" y="227.48" width="143.76" height="0.19"/><rect class="cls-103" x="113.3" y="227.61" width="143.76" height="0.19"/><rect class="cls-103" x="113.3" y="227.73" width="143.76" height="0.19"/><rect class="cls-103" x="113.3" y="227.86" width="143.76" height="0.19"/><rect class="cls-103" x="113.3" y="227.98" width="143.76" height="0.19"/><rect class="cls-103" x="113.3" y="228.1" width="143.76" height="0.19"/><rect class="cls-103" x="113.3" y="228.23" width="143.76" height="0.19"/><rect class="cls-103" x="113.3" y="228.35" width="143.76" height="0.19"/><rect class="cls-103" x="113.3" y="228.47" width="143.76" height="0.19"/><rect class="cls-103" x="113.3" y="228.6" width="143.76" height="0.19"/><rect class="cls-103" x="113.3" y="228.72" width="143.76" height="0.19"/><rect class="cls-104" x="113.3" y="228.85" width="143.76" height="0.19"/><rect class="cls-104" x="113.3" y="228.97" width="143.76" height="0.19"/><rect class="cls-104" x="113.3" y="229.09" width="143.76" height="0.19"/><rect class="cls-104" x="113.3" y="229.22" width="143.76" height="0.19"/><rect class="cls-104" x="113.3" y="229.34" width="143.76" height="0.19"/><rect class="cls-104" x="113.3" y="229.46" width="143.76" height="0.19"/><rect class="cls-105" x="113.3" y="229.59" width="143.76" height="0.19"/><rect class="cls-105" x="113.3" y="229.71" width="143.76" height="0.19"/><rect class="cls-105" x="113.3" y="229.84" width="143.76" height="0.19"/><rect class="cls-105" x="113.3" y="229.96" width="143.76" height="0.19"/><rect class="cls-105" x="113.3" y="230.08" width="143.76" height="0.19"/><rect class="cls-105" x="113.3" y="230.21" width="143.76" height="0.19"/><rect class="cls-105" x="113.3" y="230.33" width="143.76" height="0.19"/><rect class="cls-105" x="113.3" y="230.45" width="143.76" height="0.19"/><rect class="cls-105" x="113.3" y="230.58" width="143.76" height="0.19"/><rect class="cls-105" x="113.3" y="230.7" width="143.76" height="0.19"/><rect class="cls-105" x="113.3" y="230.83" width="143.76" height="0.19"/><rect class="cls-105" x="113.3" y="230.95" width="143.76" height="0.19"/><rect class="cls-106" x="113.3" y="231.07" width="143.76" height="0.19"/><rect class="cls-106" x="113.3" y="231.2" width="143.76" height="0.19"/><rect class="cls-106" x="113.3" y="231.32" width="143.76" height="0.19"/><rect class="cls-106" x="113.3" y="231.44" width="143.76" height="0.19"/><rect class="cls-106" x="113.3" y="231.57" width="143.76" height="0.19"/><rect class="cls-106" x="113.3" y="231.69" width="143.76" height="0.19"/><rect class="cls-107" x="113.3" y="231.82" width="143.76" height="0.19"/><rect class="cls-107" x="113.3" y="231.94" width="143.76" height="0.19"/><rect class="cls-107" x="113.3" y="232.06" width="143.76" height="0.19"/><rect class="cls-107" x="113.3" y="232.19" width="143.76" height="0.19"/><rect class="cls-107" x="113.3" y="232.31" width="143.76" height="0.19"/><rect class="cls-107" x="113.3" y="232.43" width="143.76" height="0.19"/><rect class="cls-108" x="113.3" y="232.56" width="143.76" height="0.19"/><rect class="cls-108" x="113.3" y="232.68" width="143.76" height="0.19"/><rect class="cls-108" x="113.3" y="232.8" width="143.76" height="0.19"/><rect class="cls-108" x="113.3" y="232.93" width="143.76" height="0.19"/><rect class="cls-108" x="113.3" y="233.05" width="143.76" height="0.19"/><rect class="cls-108" x="113.3" y="233.18" width="143.76" height="0.19"/><rect class="cls-108" x="113.3" y="233.3" width="143.76" height="0.19"/><rect class="cls-108" x="113.3" y="233.42" width="143.76" height="0.19"/><rect class="cls-108" x="113.3" y="233.55" width="143.76" height="0.19"/><rect class="cls-108" x="113.3" y="233.67" width="143.76" height="0.19"/><rect class="cls-108" x="113.3" y="233.8" width="143.76" height="0.19"/><rect class="cls-108" x="113.3" y="233.92" width="143.76" height="0.19"/><rect class="cls-109" x="113.3" y="234.04" width="143.76" height="0.19"/><rect class="cls-109" x="113.3" y="234.17" width="143.76" height="0.19"/><rect class="cls-109" x="113.3" y="234.29" width="143.76" height="0.19"/><rect class="cls-109" x="113.3" y="234.41" width="143.76" height="0.19"/><rect class="cls-109" x="113.3" y="234.54" width="143.76" height="0.19"/><rect class="cls-109" x="113.3" y="234.66" width="143.76" height="0.19"/><rect class="cls-110" x="113.3" y="234.78" width="143.76" height="0.19"/><rect class="cls-110" x="113.3" y="234.91" width="143.76" height="0.19"/><rect class="cls-110" x="113.3" y="235.03" width="143.76" height="0.19"/><rect class="cls-110" x="113.3" y="235.16" width="143.76" height="0.19"/><rect class="cls-110" x="113.3" y="235.28" width="143.76" height="0.19"/><rect class="cls-110" x="113.3" y="235.4" width="143.76" height="0.19"/><rect class="cls-111" x="113.3" y="235.53" width="143.76" height="0.19"/><rect class="cls-111" x="113.3" y="235.65" width="143.76" height="0.19"/><rect class="cls-111" x="113.3" y="235.77" width="143.76" height="0.19"/><rect class="cls-111" x="113.3" y="235.9" width="143.76" height="0.19"/><rect class="cls-111" x="113.3" y="236.02" width="143.76" height="0.19"/><rect class="cls-111" x="113.3" y="236.15" width="143.76" height="0.19"/><rect class="cls-111" x="113.3" y="236.27" width="143.76" height="0.19"/><rect class="cls-111" x="113.3" y="236.39" width="143.76" height="0.19"/><rect class="cls-111" x="113.3" y="236.52" width="143.76" height="0.19"/><rect class="cls-111" x="113.3" y="236.64" width="143.76" height="0.19"/><rect class="cls-111" x="113.3" y="236.76" width="143.76" height="0.19"/><rect class="cls-111" x="113.3" y="236.89" width="143.76" height="0.19"/><rect class="cls-112" x="113.3" y="237.01" width="143.76" height="0.19"/><rect class="cls-112" x="113.3" y="237.14" width="143.76" height="0.19"/><rect class="cls-112" x="113.3" y="237.26" width="143.76" height="0.19"/><rect class="cls-112" x="113.3" y="237.38" width="143.76" height="0.19"/><rect class="cls-112" x="113.3" y="237.51" width="143.76" height="0.19"/><rect class="cls-112" x="113.3" y="237.63" width="143.76" height="0.19"/><rect class="cls-113" x="113.3" y="237.75" width="143.76" height="0.19"/><rect class="cls-113" x="113.3" y="237.88" width="143.76" height="0.19"/><rect class="cls-113" x="113.3" y="238" width="143.76" height="0.19"/><rect class="cls-113" x="113.3" y="238.13" width="143.76" height="0.19"/><rect class="cls-113" x="113.3" y="238.25" width="143.76" height="0.19"/><rect class="cls-113" x="113.3" y="238.37" width="143.76" height="0.19"/><rect class="cls-114" x="113.3" y="238.5" width="143.76" height="0.19"/><rect class="cls-114" x="113.3" y="238.62" width="143.76" height="0.19"/><rect class="cls-114" x="113.3" y="238.74" width="143.76" height="0.19"/><rect class="cls-114" x="113.3" y="238.87" width="143.76" height="0.19"/><rect class="cls-114" x="113.3" y="238.99" width="143.76" height="0.19"/><rect class="cls-114" x="113.3" y="239.12" width="143.76" height="0.19"/><rect class="cls-114" x="113.3" y="239.24" width="143.76" height="0.19"/><rect class="cls-114" x="113.3" y="239.36" width="143.76" height="0.19"/><rect class="cls-114" x="113.3" y="239.49" width="143.76" height="0.19"/><rect class="cls-114" x="113.3" y="239.61" width="143.76" height="0.19"/><rect class="cls-114" x="113.3" y="239.73" width="143.76" height="0.19"/><rect class="cls-114" x="113.3" y="239.86" width="143.76" height="0.19"/><rect class="cls-115" x="113.3" y="239.98" width="143.76" height="0.19"/><rect class="cls-115" x="113.3" y="240.11" width="143.76" height="0.19"/><rect class="cls-115" x="113.3" y="240.23" width="143.76" height="0.19"/><rect class="cls-115" x="113.3" y="240.35" width="143.76" height="0.19"/><rect class="cls-115" x="113.3" y="240.48" width="143.76" height="0.19"/><rect class="cls-115" x="113.3" y="240.6" width="143.76" height="0.19"/><rect class="cls-116" x="113.3" y="240.72" width="143.76" height="0.19"/><rect class="cls-116" x="113.3" y="240.85" width="143.76" height="0.19"/><rect class="cls-116" x="113.3" y="240.97" width="143.76" height="0.19"/><rect class="cls-116" x="113.3" y="241.1" width="143.76" height="0.19"/><rect class="cls-116" x="113.3" y="241.22" width="143.76" height="0.19"/><rect class="cls-116" x="113.3" y="241.34" width="143.76" height="0.19"/><rect class="cls-117" x="113.3" y="241.47" width="143.76" height="0.19"/><rect class="cls-117" x="113.3" y="241.59" width="143.76" height="0.19"/><rect class="cls-117" x="113.3" y="241.71" width="143.76" height="0.19"/><rect class="cls-117" x="113.3" y="241.84" width="143.76" height="0.19"/><rect class="cls-117" x="113.3" y="241.96" width="143.76" height="0.19"/><rect class="cls-117" x="113.3" y="242.09" width="143.76" height="0.19"/><rect class="cls-118" x="113.3" y="242.21" width="143.76" height="0.19"/><rect class="cls-118" x="113.3" y="242.33" width="143.76" height="0.19"/><rect class="cls-118" x="113.3" y="242.46" width="143.76" height="0.19"/><rect class="cls-118" x="113.3" y="242.58" width="143.76" height="0.19"/><rect class="cls-118" x="113.3" y="242.7" width="143.76" height="0.19"/><rect class="cls-118" x="113.3" y="242.83" width="143.76" height="0.19"/><rect class="cls-119" x="113.3" y="242.95" width="143.76" height="0.19"/><rect class="cls-119" x="113.3" y="243.08" width="143.76" height="0.19"/><rect class="cls-119" x="113.3" y="243.2" width="143.76" height="0.19"/><rect class="cls-119" x="113.3" y="243.32" width="143.76" height="0.19"/><rect class="cls-119" x="113.3" y="243.45" width="143.76" height="0.19"/><rect class="cls-119" x="113.3" y="243.57" width="143.76" height="0.19"/><rect class="cls-120" x="113.3" y="243.69" width="143.76" height="0.19"/><rect class="cls-120" x="113.3" y="243.82" width="143.76" height="0.19"/><rect class="cls-120" x="113.3" y="243.94" width="143.76" height="0.19"/><rect class="cls-120" x="113.3" y="244.07" width="143.76" height="16.15"/></g><path class="cls-121" d="M441.21,558A115.5,115.5,0,0,0,376.41,353l58-58A185.4,185.4,0,0,1,553.78,468.25c0,102.37-82.95,185.36-185.28,185.36a186.12,186.12,0,0,1-21.63-1.27Z" transform="translate(-183.23 -282.9)"/><path class="cls-122" d="M368.5,282.9a187,187,0,0,1,21.69,1.27l-109.38,109c-16.61,20.19-27.75,46.42-27.75,75.1A115.48,115.48,0,0,0,360.81,583.49l-58.07,58.09A185.43,185.43,0,0,1,183.23,468.25C183.23,365.88,266.18,282.9,368.5,282.9Z" transform="translate(-183.23 -282.9)"/><path class="cls-123" d="M234.88,473.6a8.45,8.45,0,0,0-.74-3.66,7.51,7.51,0,0,0-2.24-2.75,14.34,14.34,0,0,0-3.77-2l-1.87-.68a7.8,7.8,0,0,1-1.4-.61,2.17,2.17,0,0,1-.87-.79,2.1,2.1,0,0,1-.31-1.2,2.23,2.23,0,0,1,1.25-2.07,3.32,3.32,0,0,1,1.47-.31,4.87,4.87,0,0,1,1.13.15c.37.1.74.21,1.12.34s.73.24,1.09.33a4.31,4.31,0,0,0,1,.16,2.46,2.46,0,0,0,1.87-.74,2.86,2.86,0,0,0,.65-2,3.05,3.05,0,0,0-.83-2.05,5.6,5.6,0,0,0-2.31-1.48,10.48,10.48,0,0,0-3.55-.57,9.91,9.91,0,0,0-3.67.67,8.12,8.12,0,0,0-4.6,4.64,9.57,9.57,0,0,0-.62,3.48,8.65,8.65,0,0,0,.42,2.83,5.81,5.81,0,0,0,1.27,2.13,8.36,8.36,0,0,0,2.16,1.62,19.15,19.15,0,0,0,3.08,1.3,18.08,18.08,0,0,1,2.28.9,3.88,3.88,0,0,1,1.47,1.15,2.89,2.89,0,0,1,.52,1.78,3,3,0,0,1-.37,1.47,2.69,2.69,0,0,1-1,1,2.78,2.78,0,0,1-1.41.38,7.8,7.8,0,0,1-1.77-.22,13.32,13.32,0,0,1-1.58-.49l-1.4-.48a4.31,4.31,0,0,0-1.21-.22,3,3,0,0,0-1.48.37,2.41,2.41,0,0,0-.95,1,3.29,3.29,0,0,0-.33,1.48,2.82,2.82,0,0,0,.59,1.65,5.36,5.36,0,0,0,1.66,1.42,8.83,8.83,0,0,0,2.51,1,12.58,12.58,0,0,0,3.17.38,10.75,10.75,0,0,0,4-.7,8.56,8.56,0,0,0,3-2,8.35,8.35,0,0,0,1.89-2.95,10.22,10.22,0,0,0,.66-3.73Zm19.2-2.46,3-10.3,2.82,10.3ZM252.5,477h9.06l.69,2.58a5.3,5.3,0,0,0,1.14,2.31,2.3,2.3,0,0,0,1.79.77,2.87,2.87,0,0,0,1.41-.37,2.63,2.63,0,0,0,1-1,3.34,3.34,0,0,0,.37-1.57,4.43,4.43,0,0,0-.1-.91c-.07-.33-.16-.69-.28-1.08l-6.2-20a6.07,6.07,0,0,0-1.63-2.72,3.61,3.61,0,0,0-2.48-.95,3.55,3.55,0,0,0-2.57,1,7.48,7.48,0,0,0-1.7,3.09l-6.38,19.6a4.53,4.53,0,0,0-.21.9,5.81,5.81,0,0,0-.06.93,3.52,3.52,0,0,0,.34,1.57,2.52,2.52,0,0,0,2.31,1.44,2.13,2.13,0,0,0,1.59-.7,5,5,0,0,0,1.1-2.11l.83-2.81Zm33.88,1.09V465.29l10.1,15.1a6.8,6.8,0,0,0,1.57,1.76,2.74,2.74,0,0,0,1.64.55,2.13,2.13,0,0,0,1.95-1,5.7,5.7,0,0,0,.6-2.95V458.57a6.54,6.54,0,0,0-.68-3.37,2.55,2.55,0,0,0-4.22,0,6.54,6.54,0,0,0-.68,3.37v13l-10.31-15.42a8.43,8.43,0,0,0-.89-1.12,3.38,3.38,0,0,0-1-.68,2.67,2.67,0,0,0-1.12-.23,2.12,2.12,0,0,0-2,1.07,6.2,6.2,0,0,0-.62,3.15v19.71a6.51,6.51,0,0,0,.68,3.37,2.55,2.55,0,0,0,4.22,0,6.51,6.51,0,0,0,.68-3.37Zm34.13-17.72v17.72a6.51,6.51,0,0,0,.68,3.37,2.55,2.55,0,0,0,4.22,0,6.51,6.51,0,0,0,.68-3.37V460.33h2.07a5.06,5.06,0,0,0,3-.72,2.56,2.56,0,0,0,1-2.21,2.62,2.62,0,0,0-1-2.23,5,5,0,0,0-3-.73h-9.72a5,5,0,0,0-3,.73,2.61,2.61,0,0,0-1,2.23,2.55,2.55,0,0,0,1,2.21,5.06,5.06,0,0,0,3,.72Zm27.37,10.81,3-10.3,2.83,10.3ZM346.29,477h9.07l.69,2.58a5.3,5.3,0,0,0,1.13,2.31,2.34,2.34,0,0,0,1.8.77,2.9,2.9,0,0,0,1.41-.37,2.63,2.63,0,0,0,1-1,3.34,3.34,0,0,0,.37-1.57,5.26,5.26,0,0,0-.1-.91c-.07-.33-.16-.69-.28-1.08l-6.21-20a6,6,0,0,0-1.62-2.72,3.64,3.64,0,0,0-2.48-.95,3.52,3.52,0,0,0-2.57,1,7.36,7.36,0,0,0-1.7,3.09l-6.38,19.6a4.55,4.55,0,0,0-.22.9,7.26,7.26,0,0,0-.06.93,3.53,3.53,0,0,0,.35,1.57,2.5,2.5,0,0,0,.93,1.05,2.6,2.6,0,0,0,1.38.39,2.16,2.16,0,0,0,1.59-.7,5,5,0,0,0,1.09-2.11Z" transform="translate(-183.23 -282.9)"/><path class="cls-123" d="M396.55,483a12.22,12.22,0,0,0,3.15-.4,8.7,8.7,0,0,0,2.44-1.08,5.23,5.23,0,0,0,1.57-1.53,3.25,3.25,0,0,0,.56-1.79,2.93,2.93,0,0,0-.33-1.38,2.71,2.71,0,0,0-.82-1,1.76,1.76,0,0,0-1.09-.39,2.68,2.68,0,0,0-1,.23c-.37.14-.76.3-1.19.49a9.85,9.85,0,0,1-1.36.49,6,6,0,0,1-1.62.23,5.47,5.47,0,0,1-3.28-1A6.43,6.43,0,0,1,391.4,473a12,12,0,0,1-.78-4.48,12.88,12.88,0,0,1,.77-4.61,6.66,6.66,0,0,1,2.1-3,5.15,5.15,0,0,1,3.16-1.05,6.7,6.7,0,0,1,1.45.17,11.67,11.67,0,0,1,1.3.38l1.16.38a3.91,3.91,0,0,0,1,.16,1.94,1.94,0,0,0,1.2-.41,2.73,2.73,0,0,0,.85-1,3,3,0,0,0,.33-1.4,2.92,2.92,0,0,0-.53-1.63,5.18,5.18,0,0,0-1.51-1.42,8.09,8.09,0,0,0-2.32-1,11,11,0,0,0-3-.39,11.17,11.17,0,0,0-3.85.67,11,11,0,0,0-3.32,1.94,12.5,12.5,0,0,0-2.59,3.06,14.91,14.91,0,0,0-1.7,4.07,19.71,19.71,0,0,0-.61,4.94,20.12,20.12,0,0,0,.88,6.07,13.78,13.78,0,0,0,2.46,4.62,10.88,10.88,0,0,0,3.79,3,11.57,11.57,0,0,0,4.87,1Zm20.72-24.44v19.64a6.51,6.51,0,0,0,.32,2.37,2.18,2.18,0,0,0,1.17,1.25,5.73,5.73,0,0,0,2.3.36h6.51a5,5,0,0,0,3-.72,3,3,0,0,0,0-4.42,5.06,5.06,0,0,0-3-.72h-4.72V458.57a6.54,6.54,0,0,0-.68-3.37,2.55,2.55,0,0,0-4.22,0,6.54,6.54,0,0,0-.68,3.37Zm32.23,12.57,3-10.3,2.83,10.3ZM447.91,477H457l.69,2.58a5.19,5.19,0,0,0,1.13,2.31,2.32,2.32,0,0,0,1.79.77,2.87,2.87,0,0,0,1.41-.37,2.65,2.65,0,0,0,1-1,3.22,3.22,0,0,0,.36-1.57,4.43,4.43,0,0,0-.1-.91,9.63,9.63,0,0,0-.28-1.08l-6.2-20a6.07,6.07,0,0,0-1.63-2.72,3.6,3.6,0,0,0-2.47-.95,3.56,3.56,0,0,0-2.58,1,7.48,7.48,0,0,0-1.7,3.09L442,477.74a4,4,0,0,0-.22.9,7.26,7.26,0,0,0-.06.93,3.52,3.52,0,0,0,.34,1.57,2.52,2.52,0,0,0,2.31,1.44,2.13,2.13,0,0,0,1.59-.7,4.91,4.91,0,0,0,1.1-2.11l.83-2.81Zm33.88-10v-6.75h2.66a3.55,3.55,0,0,1,2.58.89,3.3,3.3,0,0,1,.9,2.43,3.4,3.4,0,0,1-.92,2.52,3.6,3.6,0,0,1-2.63.91Zm0,4.22,6.52,9.25a8.51,8.51,0,0,0,1.48,1.68,2.46,2.46,0,0,0,1.52.59,2.57,2.57,0,0,0,1.38-.41,2.74,2.74,0,0,0,.93-1.06,3.37,3.37,0,0,0,.34-1.5,6.33,6.33,0,0,0-1.65-3.63l-4.41-5.54a7.51,7.51,0,0,0,3.16-1.38,6.6,6.6,0,0,0,2-2.58,8.67,8.67,0,0,0,.71-3.54,9.87,9.87,0,0,0-.61-3.51,7.6,7.6,0,0,0-1.8-2.74,8.06,8.06,0,0,0-2.93-1.78,11.76,11.76,0,0,0-4-.63h-4.34a5.76,5.76,0,0,0-1.91.26,2.46,2.46,0,0,0-1.18.8,3.21,3.21,0,0,0-.6,1.39,9.09,9.09,0,0,0-.17,2v19.16a6.51,6.51,0,0,0,.68,3.37,2.55,2.55,0,0,0,4.22,0,6.51,6.51,0,0,0,.68-3.37v-6.83Zm31.34-.08,3-10.3,2.83,10.3ZM511.54,477h9.07l.69,2.58a5.3,5.3,0,0,0,1.13,2.31,2.34,2.34,0,0,0,1.8.77,2.9,2.9,0,0,0,1.41-.37,2.63,2.63,0,0,0,1-1,3.34,3.34,0,0,0,.37-1.57,5.26,5.26,0,0,0-.1-.91c-.07-.33-.16-.69-.28-1.08l-6.21-20a6,6,0,0,0-1.62-2.72,3.64,3.64,0,0,0-2.48-.95,3.52,3.52,0,0,0-2.57,1,7.36,7.36,0,0,0-1.7,3.09l-6.38,19.6a4,4,0,0,0-.22.9,7.26,7.26,0,0,0-.06.93,3.53,3.53,0,0,0,.35,1.57,2.5,2.5,0,0,0,.93,1.05,2.6,2.6,0,0,0,1.38.39,2.16,2.16,0,0,0,1.59-.7,5,5,0,0,0,1.09-2.11Z" transform="translate(-183.23 -282.9)"/><path class="cls-124" d="M234.88,473.6a8.45,8.45,0,0,0-.74-3.66,7.51,7.51,0,0,0-2.24-2.75,14.34,14.34,0,0,0-3.77-2l-1.87-.68a7.8,7.8,0,0,1-1.4-.61,2.17,2.17,0,0,1-.87-.79,2.1,2.1,0,0,1-.31-1.2,2.23,2.23,0,0,1,1.25-2.07,3.32,3.32,0,0,1,1.47-.31,4.87,4.87,0,0,1,1.13.15c.37.1.74.21,1.12.34s.73.24,1.09.33a4.31,4.31,0,0,0,1,.16,2.46,2.46,0,0,0,1.87-.74,2.86,2.86,0,0,0,.65-2,3.05,3.05,0,0,0-.83-2.05,5.6,5.6,0,0,0-2.31-1.48,10.48,10.48,0,0,0-3.55-.57,9.91,9.91,0,0,0-3.67.67,8.12,8.12,0,0,0-4.6,4.64,9.57,9.57,0,0,0-.62,3.48,8.65,8.65,0,0,0,.42,2.83,5.81,5.81,0,0,0,1.27,2.13,8.36,8.36,0,0,0,2.16,1.62,19.15,19.15,0,0,0,3.08,1.3,18.08,18.08,0,0,1,2.28.9,3.88,3.88,0,0,1,1.47,1.15,2.89,2.89,0,0,1,.52,1.78,3,3,0,0,1-.37,1.47,2.69,2.69,0,0,1-1,1,2.78,2.78,0,0,1-1.41.38,7.8,7.8,0,0,1-1.77-.22,13.32,13.32,0,0,1-1.58-.49l-1.4-.48a4.31,4.31,0,0,0-1.21-.22,3,3,0,0,0-1.48.37,2.41,2.41,0,0,0-.95,1,3.29,3.29,0,0,0-.33,1.48,2.82,2.82,0,0,0,.59,1.65,5.36,5.36,0,0,0,1.66,1.42,8.83,8.83,0,0,0,2.51,1,12.58,12.58,0,0,0,3.17.38,10.75,10.75,0,0,0,4-.7,8.56,8.56,0,0,0,3-2,8.35,8.35,0,0,0,1.89-2.95,10.22,10.22,0,0,0,.66-3.73Zm19.2-2.46,3-10.3,2.82,10.3ZM252.5,477h9.06l.69,2.58a5.3,5.3,0,0,0,1.14,2.31,2.3,2.3,0,0,0,1.79.77,2.87,2.87,0,0,0,1.41-.37,2.63,2.63,0,0,0,1-1,3.34,3.34,0,0,0,.37-1.57,4.43,4.43,0,0,0-.1-.91c-.07-.33-.16-.69-.28-1.08l-6.2-20a6.07,6.07,0,0,0-1.63-2.72,3.61,3.61,0,0,0-2.48-.95,3.55,3.55,0,0,0-2.57,1,7.48,7.48,0,0,0-1.7,3.09l-6.38,19.6a4.53,4.53,0,0,0-.21.9,5.81,5.81,0,0,0-.06.93,3.52,3.52,0,0,0,.34,1.57,2.52,2.52,0,0,0,2.31,1.44,2.13,2.13,0,0,0,1.59-.7,5,5,0,0,0,1.1-2.11l.83-2.81Zm33.88,1.09V465.29l10.1,15.1a6.8,6.8,0,0,0,1.57,1.76,2.74,2.74,0,0,0,1.64.55,2.13,2.13,0,0,0,1.95-1,5.7,5.7,0,0,0,.6-2.95V458.57a6.54,6.54,0,0,0-.68-3.37,2.55,2.55,0,0,0-4.22,0,6.54,6.54,0,0,0-.68,3.37v13l-10.31-15.42a8.43,8.43,0,0,0-.89-1.12,3.38,3.38,0,0,0-1-.68,2.67,2.67,0,0,0-1.12-.23,2.12,2.12,0,0,0-2,1.07,6.2,6.2,0,0,0-.62,3.15v19.71a6.51,6.51,0,0,0,.68,3.37,2.55,2.55,0,0,0,4.22,0,6.51,6.51,0,0,0,.68-3.37Zm34.13-17.72v17.72a6.51,6.51,0,0,0,.68,3.37,2.55,2.55,0,0,0,4.22,0,6.51,6.51,0,0,0,.68-3.37V460.33h2.07a5.06,5.06,0,0,0,3-.72,2.56,2.56,0,0,0,1-2.21,2.62,2.62,0,0,0-1-2.23,5,5,0,0,0-3-.73h-9.72a5,5,0,0,0-3,.73,2.61,2.61,0,0,0-1,2.23,2.55,2.55,0,0,0,1,2.21,5.06,5.06,0,0,0,3,.72Zm27.37,10.81,3-10.3,2.83,10.3ZM346.29,477h9.07l.69,2.58a5.3,5.3,0,0,0,1.13,2.31,2.34,2.34,0,0,0,1.8.77,2.9,2.9,0,0,0,1.41-.37,2.63,2.63,0,0,0,1-1,3.34,3.34,0,0,0,.37-1.57,5.26,5.26,0,0,0-.1-.91c-.07-.33-.16-.69-.28-1.08l-6.21-20a6,6,0,0,0-1.62-2.72,3.64,3.64,0,0,0-2.48-.95,3.52,3.52,0,0,0-2.57,1,7.36,7.36,0,0,0-1.7,3.09l-6.38,19.6a4.55,4.55,0,0,0-.22.9,7.26,7.26,0,0,0-.06.93,3.53,3.53,0,0,0,.35,1.57,2.5,2.5,0,0,0,.93,1.05,2.6,2.6,0,0,0,1.38.39,2.16,2.16,0,0,0,1.59-.7,5,5,0,0,0,1.09-2.11Z" transform="translate(-183.23 -282.9)"/><path class="cls-124" d="M396.55,483a12.22,12.22,0,0,0,3.15-.4,8.7,8.7,0,0,0,2.44-1.08,5.23,5.23,0,0,0,1.57-1.53,3.25,3.25,0,0,0,.56-1.79,2.93,2.93,0,0,0-.33-1.38,2.71,2.71,0,0,0-.82-1,1.76,1.76,0,0,0-1.09-.39,2.68,2.68,0,0,0-1,.23c-.37.14-.76.3-1.19.49a9.85,9.85,0,0,1-1.36.49,6,6,0,0,1-1.62.23,5.47,5.47,0,0,1-3.28-1A6.43,6.43,0,0,1,391.4,473a12,12,0,0,1-.78-4.48,12.88,12.88,0,0,1,.77-4.61,6.66,6.66,0,0,1,2.1-3,5.15,5.15,0,0,1,3.16-1.05,6.7,6.7,0,0,1,1.45.17,11.67,11.67,0,0,1,1.3.38l1.16.38a3.91,3.91,0,0,0,1,.16,1.94,1.94,0,0,0,1.2-.41,2.73,2.73,0,0,0,.85-1,3,3,0,0,0,.33-1.4,2.92,2.92,0,0,0-.53-1.63,5.18,5.18,0,0,0-1.51-1.42,8.09,8.09,0,0,0-2.32-1,11,11,0,0,0-3-.39,11.17,11.17,0,0,0-3.85.67,11,11,0,0,0-3.32,1.94,12.5,12.5,0,0,0-2.59,3.06,14.91,14.91,0,0,0-1.7,4.07,19.71,19.71,0,0,0-.61,4.94,20.12,20.12,0,0,0,.88,6.07,13.78,13.78,0,0,0,2.46,4.62,10.88,10.88,0,0,0,3.79,3,11.57,11.57,0,0,0,4.87,1Zm20.72-24.44v19.64a6.51,6.51,0,0,0,.32,2.37,2.18,2.18,0,0,0,1.17,1.25,5.73,5.73,0,0,0,2.3.36h6.51a5,5,0,0,0,3-.72,3,3,0,0,0,0-4.42,5.06,5.06,0,0,0-3-.72h-4.72V458.57a6.54,6.54,0,0,0-.68-3.37,2.55,2.55,0,0,0-4.22,0,6.54,6.54,0,0,0-.68,3.37Zm32.23,12.57,3-10.3,2.83,10.3ZM447.91,477H457l.69,2.58a5.19,5.19,0,0,0,1.13,2.31,2.32,2.32,0,0,0,1.79.77,2.87,2.87,0,0,0,1.41-.37,2.65,2.65,0,0,0,1-1,3.22,3.22,0,0,0,.36-1.57,4.43,4.43,0,0,0-.1-.91,9.63,9.63,0,0,0-.28-1.08l-6.2-20a6.07,6.07,0,0,0-1.63-2.72,3.6,3.6,0,0,0-2.47-.95,3.56,3.56,0,0,0-2.58,1,7.48,7.48,0,0,0-1.7,3.09L442,477.74a4,4,0,0,0-.22.9,7.26,7.26,0,0,0-.06.93,3.52,3.52,0,0,0,.34,1.57,2.52,2.52,0,0,0,2.31,1.44,2.13,2.13,0,0,0,1.59-.7,4.91,4.91,0,0,0,1.1-2.11l.83-2.81Zm33.88-10v-6.75h2.66a3.55,3.55,0,0,1,2.58.89,3.3,3.3,0,0,1,.9,2.43,3.4,3.4,0,0,1-.92,2.52,3.6,3.6,0,0,1-2.63.91Zm0,4.22,6.52,9.25a8.51,8.51,0,0,0,1.48,1.68,2.46,2.46,0,0,0,1.52.59,2.57,2.57,0,0,0,1.38-.41,2.74,2.74,0,0,0,.93-1.06,3.37,3.37,0,0,0,.34-1.5,6.33,6.33,0,0,0-1.65-3.63l-4.41-5.54a7.51,7.51,0,0,0,3.16-1.38,6.6,6.6,0,0,0,2-2.58,8.67,8.67,0,0,0,.71-3.54,9.87,9.87,0,0,0-.61-3.51,7.6,7.6,0,0,0-1.8-2.74,8.06,8.06,0,0,0-2.93-1.78,11.76,11.76,0,0,0-4-.63h-4.34a5.76,5.76,0,0,0-1.91.26,2.46,2.46,0,0,0-1.18.8,3.21,3.21,0,0,0-.6,1.39,9.09,9.09,0,0,0-.17,2v19.16a6.51,6.51,0,0,0,.68,3.37,2.55,2.55,0,0,0,4.22,0,6.51,6.51,0,0,0,.68-3.37v-6.83Zm31.34-.08,3-10.3,2.83,10.3ZM511.54,477h9.07l.69,2.58a5.3,5.3,0,0,0,1.13,2.31,2.34,2.34,0,0,0,1.8.77,2.9,2.9,0,0,0,1.41-.37,2.63,2.63,0,0,0,1-1,3.34,3.34,0,0,0,.37-1.57,5.26,5.26,0,0,0-.1-.91c-.07-.33-.16-.69-.28-1.08l-6.21-20a6,6,0,0,0-1.62-2.72,3.64,3.64,0,0,0-2.48-.95,3.52,3.52,0,0,0-2.57,1,7.36,7.36,0,0,0-1.7,3.09l-6.38,19.6a4,4,0,0,0-.22.9,7.26,7.26,0,0,0-.06.93,3.53,3.53,0,0,0,.35,1.57,2.5,2.5,0,0,0,.93,1.05,2.6,2.6,0,0,0,1.38.39,2.16,2.16,0,0,0,1.59-.7,5,5,0,0,0,1.09-2.11Z" transform="translate(-183.23 -282.9)"/></svg>